<?xml version="1.0" encoding="UTF-8" standalone="no"?>
<svg
   xmlns:svg="http://www.w3.org/2000/svg"
   xmlns="http://www.w3.org/2000/svg"
   width="500.0"
   height="500.0"

>
    <g transform="scale(10.937960299802771, -10.937960299802771)   translate(18.97063020092892,-21.128494577197973)" stroke-width="0.25"  fill="none">
       <!-- hidden lines -->
       <g  stroke="rgb(160,160,160)" fill="none" stroke-dasharray="0.25,0.25" >
			<path d="M-10.200000000000003,19.300000000000004 L10.2,19.300000000000004 " />
			<path d="M-10.200000000000003,2.0428103653102883e-15 L10.2,2.0428103653102887e-15 " />
			<path d="M-10.200000000000003,2.0428103653102883e-15 L-10.423928952206618,2.041414195440182e-15 L-10.645041867912632,2.0372432434760558e-15 L-10.860558123910337,2.030349961558901e-15 L-11.067767478235119,2.0208210367084023e-15 L-11.264064153030676,2.0087763006833647e-15 L-11.44697960371747,1.9943672230278223e-15 L-11.614213562373099,1.9777750062536346e-15 L-11.763662964936062,1.9592083071137655e-15 L-11.89344839845657,1.938900612622549e-15 L-12.001937735804841,1.9171073038210105e-15 L-12.087766660616738,1.894102444212102e-15 L-12.14985582436365,1.8701753332531358e-15 L-12.187424419786488,1.845626868247254e-15 L-12.200000000000001,1.820765760385259e-15 " />
			<path d="M10.2,2.0428103653102883e-15 L10.423928952206614,2.041414195440182e-15 L10.645041867912628,2.0372432434760558e-15 L10.860558123910334,2.030349961558901e-15 L11.067767478235115,2.0208210367084023e-15 L11.264064153030672,2.0087763006833647e-15 L11.446979603717466,1.9943672230278223e-15 L11.614213562373093,1.9777750062536346e-15 L11.763662964936058,1.9592083071137655e-15 L11.893448398456567,1.938900612622549e-15 L12.001937735804837,1.9171073038210105e-15 L12.087766660616735,1.894102444212102e-15 L12.149855824363646,1.8701753332531358e-15 L12.187424419786485,1.845626868247254e-15 L12.2,1.8207657603852578e-15 " />
			<path d="M-14.200000000000001,4.440892098500625e-16 L-13.976071047793386,4.4269303997995603e-16 L-13.754958132087372,4.3852208801582983e-16 L-13.539441876089667,4.3162880609867547e-16 L-13.332232521764885,4.2209988124817657e-16 L-13.135935846969328,4.1005514522313906e-16 L-12.953020396282534,3.9564606756759645e-16 L-12.785786437626907,3.790538507934087e-16 L-12.636337035063942,3.6048715165353976e-16 L-12.506551601543434,3.401794571623232e-16 L-12.398062264195163,3.183861483607848e-16 L-12.312233339383265,2.9538128875187625e-16 L-12.250144175636354,2.7145417779291006e-16 L-12.212575580213516,2.4690571278702836e-16 L-12.200000000000001,2.220446049250322e-16 " />
			<path d="M14.200000000000001,4.440892098500628e-16 L13.976071047793386,4.4269303997995637e-16 L13.754958132087372,4.385220880158302e-16 L13.539441876089667,4.3162880609867586e-16 L13.332232521764885,4.2209988124817696e-16 L13.135935846969328,4.100551452231394e-16 L12.953020396282534,3.9564606756759675e-16 L12.785786437626907,3.790538507934091e-16 L12.636337035063942,3.604871516535401e-16 L12.506551601543432,3.401794571623235e-16 L12.398062264195163,3.1838614836078514e-16 L12.312233339383265,2.953812887518766e-16 L12.250144175636354,2.714541777929104e-16 L12.212575580213516,2.469057127870287e-16 L12.200000000000003,2.220446049250336e-16 " />
			<path d="M-15.142135623730951,4.440892098500624e-16 L-14.200000000000001,4.4408920985006247e-16 " />
			<path d="M14.200000000000001,4.440892098500628e-16 L15.142135623730951,4.440892098500628e-16 " />
			<path d="M-15.142135623730951,4.4408920985006247e-16 L-15.366064575937566,4.42693039979956e-16 L-15.58717749164358,4.3852208801582983e-16 L-15.802693747641285,4.3162880609867547e-16 L-16.009903101966067,4.2209988124817657e-16 L-16.206199776761625,4.10055145223139e-16 L-16.389115227448418,3.9564606756759635e-16 L-16.556349186104047,3.790538507934087e-16 L-16.70579858866701,3.604871516535397e-16 L-16.83558402218752,3.401794571623231e-16 L-16.94407335953579,3.1838614836078474e-16 L-17.029902284347685,2.953812887518762e-16 L-17.091991448094596,2.7145417779291e-16 L-17.129560043517436,2.469057127870283e-16 L-17.14213562373095,2.2204460492503313e-16 " />
			<path d="M15.142135623730951,4.440892098500628e-16 L15.366064575937566,4.4269303997995637e-16 L15.58717749164358,4.385220880158302e-16 L15.802693747641285,4.3162880609867586e-16 L16.009903101966067,4.2209988124817696e-16 L16.206199776761622,4.1005514522313945e-16 L16.389115227448418,3.9564606756759685e-16 L16.556349186104047,3.790538507934091e-16 L16.70579858866701,3.604871516535401e-16 L16.83558402218752,3.4017945716232354e-16 L16.94407335953579,3.1838614836078514e-16 L17.029902284347685,2.9538128875187665e-16 L17.0919914480946,2.714541777929104e-16 L17.129560043517436,2.469057127870287e-16 L17.14213562373095,2.220446049250326e-16 " />
			<path d="M-14.142135623730951,-1.221245327087674e-16 L-14.26529654744459,-1.2135663928020885e-16 L-14.386908651082896,-1.1906261569993945e-16 L-14.505442591881634,-1.1527131064550455e-16 L-14.619407736760264,-1.1003040197773014e-16 L-14.727370907897821,-1.0340579716395952e-16 L-14.827974405775558,-9.548080445341108e-17 L-14.919953083036154,-8.635508522760783e-17 L-15.002150254445784,-7.61434007006799e-17 L-15.073532242882063,-6.497416873051078e-17 L-15.133201378423612,-5.2987848889664666e-17 L-15.180407287070155,-4.0335176104764975e-17 L-15.214556327130957,-2.7175265077333573e-17 L-15.235219054613518,-1.3673609324098629e-17 L-15.24213562373095,-5.192307130067988e-31 " />
			<path d="M-15.24213562373095,-2.4958598478849357e-31 L-15.214556327130957,2.71752650773331e-17 L-15.133201378423612,5.2987848889664216e-17 L-15.002150254445784,7.614340070067946e-17 L-14.827974405775558,9.548080445341066e-17 L-14.619407736760266,1.1003040197772977e-16 L-14.386908651082898,1.1906261569993908e-16 L-14.142135623730951,1.2212453270876706e-16 L-13.897362596379006,1.190626156999391e-16 L-13.664863510701638,1.1003040197772982e-16 L-13.456296841686346,9.548080445341076e-17 L-13.282120993016118,7.614340070067956e-17 L-13.15106986903829,5.2987848889664315e-17 L-13.069714920330945,2.717526507733321e-17 L-13.042135623730953,9.398538128609711e-31 " />
			<path d="M-13.042135623730951,-1.383228203217451e-31 L-13.049052192848384,-1.3673609324098546e-17 L-13.069714920330945,-2.7175265077333493e-17 L-13.103863960391747,-4.0335176104764895e-17 L-13.15106986903829,-5.298784888966459e-17 L-13.210739004579839,-6.49741687305107e-17 L-13.282120993016118,-7.614340070067985e-17 L-13.364318164425748,-8.635508522760778e-17 L-13.456296841686344,-9.548080445341103e-17 L-13.55690033956408,-1.0340579716395947e-16 L-13.664863510701636,-1.1003040197773013e-16 L-13.778828655580266,-1.1527131064550455e-16 L-13.897362596379004,-1.1906261569993942e-16 L-14.018974700017312,-1.2135663928020885e-16 L-14.142135623730942,-1.2212453270876735e-16 " />
			<path d="M-10.7,-1.8762769116165148e-15 L10.700000000000003,-1.8762769116165144e-15 " />
			<path d="M-10.700000000000003,1.8762769116165148e-15 L10.7,1.876276911616515e-15 " />
			<path d="M14.142135623730951,-1.2212453270876706e-16 L14.018974700017312,-1.213566392802085e-16 L13.897362596379006,-1.190626156999391e-16 L13.778828655580268,-1.152713106455042e-16 L13.664863510701638,-1.1003040197772979e-16 L13.55690033956408,-1.0340579716395918e-16 L13.456296841686344,-9.548080445341073e-17 L13.364318164425748,-8.635508522760748e-17 L13.282120993016118,-7.614340070067955e-17 L13.210739004579839,-6.497416873051044e-17 L13.15106986903829,-5.298784888966432e-17 L13.103863960391747,-4.033517610476463e-17 L13.069714920330945,-2.7175265077333222e-17 L13.049052192848384,-1.3673609324098281e-17 L13.042135623730951,-1.7102257906158654e-31 " />
			<path d="M13.042135623730951,9.904457489571634e-32 L13.069714920330945,2.7175265077333453e-17 L13.15106986903829,5.298784888966456e-17 L13.282120993016118,7.614340070067981e-17 L13.456296841686344,9.5480804453411e-17 L13.664863510701636,1.1003040197773011e-16 L13.897362596379004,1.1906261569993942e-16 L14.142135623730951,1.221245327087674e-16 L14.386908651082896,1.1906261569993945e-16 L14.619407736760264,1.1003040197773016e-16 L14.827974405775556,9.54808044534111e-17 L15.002150254445784,7.614340070067991e-17 L15.133201378423612,5.298784888966466e-17 L15.214556327130957,2.717526507733356e-17 L15.242135623730949,1.2849804588951638e-30 " />
			<path d="M15.24213562373095,2.103077393624648e-31 L15.235219054613518,-1.3673609324098198e-17 L15.214556327130957,-2.717526507733314e-17 L15.180407287070155,-4.033517610476455e-17 L15.133201378423612,-5.298784888966425e-17 L15.073532242882063,-6.497416873051035e-17 L15.002150254445784,-7.61434007006795e-17 L14.919953083036154,-8.635508522760743e-17 L14.827974405775558,-9.548080445341068e-17 L14.727370907897821,-1.0340579716395913e-16 L14.619407736760266,-1.1003040197772978e-16 L14.505442591881636,-1.152713106455042e-16 L14.386908651082898,-1.1906261569993908e-16 L14.26529654744459,-1.213566392802085e-16 L14.14213562373096,-1.22124532708767e-16 " />
			<path d="M14.142135623730951,1.4999999999999998 L14.018974700017312,1.4999999999999998 L13.897362596379006,1.4999999999999998 L13.778828655580268,1.4999999999999998 L13.664863510701638,1.5 L13.55690033956408,1.5 L13.456296841686344,1.5 L13.364318164425748,1.5 L13.282120993016118,1.5 L13.210739004579839,1.5 L13.15106986903829,1.5 L13.103863960391747,1.5 L13.069714920330945,1.5 L13.049052192848384,1.5 L13.042135623730951,1.5 " />
			<path d="M13.042135623730951,1.5 L13.069714920330945,1.5 L13.15106986903829,1.5 L13.282120993016118,1.5 L13.456296841686344,1.5 L13.664863510701636,1.5 L13.897362596379004,1.5000000000000002 L14.142135623730951,1.5000000000000002 L14.386908651082896,1.5000000000000002 L14.619407736760264,1.5 L14.827974405775556,1.5 L15.002150254445784,1.5 L15.133201378423612,1.5 L15.214556327130957,1.5 L15.242135623730949,1.5 " />
			<path d="M15.24213562373095,1.5 L15.235219054613518,1.5 L15.214556327130957,1.5 L15.180407287070155,1.5 L15.133201378423612,1.5 L15.073532242882063,1.5 L15.002150254445784,1.5 L14.919953083036154,1.5 L14.827974405775558,1.5 L14.727370907897821,1.5 L14.619407736760266,1.5 L14.505442591881636,1.4999999999999998 L14.386908651082898,1.4999999999999998 L14.26529654744459,1.4999999999999998 L14.14213562373096,1.4999999999999998 " />
			<path d="M11.600000000000001,1.5000000000000002 L12.200000000000001,1.5000000000000002 " />
			<path d="M11.600000000000001,1.4999999999999998 L12.200000000000001,1.4999999999999998 " />
			<path d="M15.142135623730951,1.5000000000000004 L15.366064575937566,1.5000000000000004 L15.58717749164358,1.5000000000000004 L15.802693747641285,1.5000000000000004 L16.009903101966067,1.5000000000000004 L16.206199776761622,1.5000000000000004 L16.389115227448418,1.5000000000000004 L16.556349186104047,1.5000000000000004 L16.70579858866701,1.5000000000000004 L16.83558402218752,1.5000000000000004 L16.94407335953579,1.5000000000000002 L17.029902284347685,1.5000000000000002 L17.0919914480946,1.5000000000000002 L17.129560043517436,1.5000000000000002 L17.14213562373095,1.5000000000000002 " />
			<path d="M14.200000000000001,1.5000000000000004 L15.142135623730951,1.5000000000000004 " />
			<path d="M12.200000000000001,1.5000000000000002 L12.212575580213516,1.5000000000000002 L12.250144175636354,1.5000000000000002 L12.312233339383265,1.5000000000000002 L12.398062264195163,1.5000000000000002 L12.506551601543432,1.5000000000000004 L12.636337035063942,1.5000000000000004 L12.785786437626905,1.5000000000000004 L12.953020396282534,1.5000000000000004 L13.135935846969328,1.5000000000000004 L13.332232521764885,1.5000000000000004 L13.539441876089667,1.5000000000000004 L13.754958132087372,1.5000000000000004 L13.976071047793384,1.5000000000000004 L14.199999999999998,1.5000000000000004 " />
			<path d="M11.600000000000001,3.9999999999999996 L12.200000000000001,3.9999999999999996 " />
			<path d="M12.200000000000001,4.0 L12.200000000000001,1.4999999999999998 " />
			<path d="M11.600000000000001,1.4999999999999998 L11.600000000000001,4.0 " />
			<path d="M11.600000000000001,4.0 L12.200000000000001,4.0 " />
			<path d="M11.600000000000001,1.5000000000000002 L11.600000000000001,4.0 " />
			<path d="M12.200000000000001,4.0 L12.200000000000001,1.5000000000000002 " />
			<path d="M10.7,17.800000000000004 L10.7,3.552713678800501e-15 " />
			<path d="M10.700000000000003,17.799999999999997 L10.700000000000003,-3.552713678800501e-15 " />
			<path d="M-10.700000000000003,17.800000000000004 L10.7,17.800000000000004 " />
			<path d="M-10.7,17.799999999999997 L10.700000000000003,17.799999999999997 " />
			<path d="M-8.7,17.8 L8.700000000000003,17.8 " />
			<path d="M-8.700000000000003,17.8 L8.7,17.8 " />
			<path d="M-8.700000000000003,17.8 L-8.700000000000003,19.3 " />
			<path d="M-8.700000000000003,19.3 L8.7,19.3 " />
			<path d="M8.7,17.8 L8.7,19.3 " />
			<path d="M8.700000000000003,17.8 L8.700000000000003,19.3 " />
			<path d="M-8.7,17.8 L-8.7,19.3 " />
			<path d="M-8.7,19.3 L8.700000000000003,19.3 " />
			<path d="M-10.700000000000003,1.8762769116165148e-15 L-10.700000000000003,17.800000000000004 " />
			<path d="M-10.7,17.799999999999997 L-10.7,-3.552713678800501e-15 " />
			<path d="M-14.142135623730951,1.4999999999999998 L-14.26529654744459,1.4999999999999998 L-14.386908651082896,1.4999999999999998 L-14.505442591881634,1.4999999999999998 L-14.619407736760264,1.5 L-14.727370907897821,1.5 L-14.827974405775558,1.5 L-14.919953083036154,1.5 L-15.002150254445784,1.5 L-15.073532242882063,1.5 L-15.133201378423612,1.5 L-15.180407287070155,1.5 L-15.214556327130957,1.5 L-15.235219054613518,1.5 L-15.24213562373095,1.5 " />
			<path d="M-15.24213562373095,1.5 L-15.214556327130957,1.5 L-15.133201378423612,1.5 L-15.002150254445784,1.5 L-14.827974405775558,1.5 L-14.619407736760266,1.5 L-14.386908651082898,1.5000000000000002 L-14.142135623730951,1.5000000000000002 L-13.897362596379006,1.5000000000000002 L-13.664863510701638,1.5 L-13.456296841686346,1.5 L-13.282120993016118,1.5 L-13.15106986903829,1.5 L-13.069714920330945,1.5 L-13.042135623730953,1.5 " />
			<path d="M-13.042135623730951,1.5 L-13.049052192848384,1.5 L-13.069714920330945,1.5 L-13.103863960391747,1.5 L-13.15106986903829,1.5 L-13.210739004579839,1.5 L-13.282120993016118,1.5 L-13.364318164425748,1.5 L-13.456296841686344,1.5 L-13.55690033956408,1.5 L-13.664863510701636,1.5 L-13.778828655580266,1.4999999999999998 L-13.897362596379004,1.4999999999999998 L-14.018974700017312,1.4999999999999998 L-14.142135623730942,1.4999999999999998 " />
			<path d="M-12.200000000000001,1.5000000000000002 L-11.600000000000001,1.5000000000000002 " />
			<path d="M-14.200000000000001,1.5000000000000004 L-13.976071047793386,1.5000000000000004 L-13.754958132087372,1.5000000000000004 L-13.539441876089667,1.5000000000000004 L-13.332232521764885,1.5000000000000004 L-13.135935846969328,1.5000000000000004 L-12.953020396282534,1.5000000000000004 L-12.785786437626907,1.5000000000000004 L-12.636337035063942,1.5000000000000004 L-12.506551601543434,1.5000000000000004 L-12.398062264195163,1.5000000000000002 L-12.312233339383265,1.5000000000000002 L-12.250144175636354,1.5000000000000002 L-12.212575580213516,1.5000000000000002 L-12.200000000000001,1.5000000000000002 " />
			<path d="M-15.142135623730951,1.5000000000000004 L-14.200000000000001,1.5000000000000004 " />
			<path d="M-15.142135623730951,1.5000000000000004 L-15.366064575937566,1.5000000000000004 L-15.58717749164358,1.5000000000000004 L-15.802693747641285,1.5000000000000004 L-16.009903101966067,1.5000000000000004 L-16.206199776761625,1.5000000000000004 L-16.389115227448418,1.5000000000000004 L-16.556349186104047,1.5000000000000004 L-16.70579858866701,1.5000000000000004 L-16.83558402218752,1.5000000000000004 L-16.94407335953579,1.5000000000000002 L-17.029902284347685,1.5000000000000002 L-17.091991448094596,1.5000000000000002 L-17.129560043517436,1.5000000000000002 L-17.14213562373095,1.5000000000000002 " />
			<path d="M-12.200000000000001,1.4999999999999998 L-11.600000000000001,1.4999999999999998 " />
			<path d="M-11.600000000000001,1.4999999999999998 L-11.600000000000001,4.0 " />
			<path d="M-11.600000000000001,1.5000000000000002 L-11.600000000000001,4.0 " />
			<path d="M-12.200000000000001,4.0 L-11.600000000000001,4.0 " />
			<path d="M-12.200000000000001,3.9999999999999996 L-11.600000000000001,3.9999999999999996 " />
			<path d="M-12.200000000000001,4.0 L-12.200000000000001,1.4999999999999998 " />
			<path d="M-12.200000000000001,4.0 L-12.200000000000001,1.5000000000000002 " />
			<path d="M12.200000000000001,-2.220446049250312e-16 L12.200000000000001,1.4999999999999998 " />
			<path d="M-12.200000000000001,-2.220446049250315e-16 L-12.200000000000001,1.4999999999999998 " />
			<path d="M-17.14213562373095,2.2204460492503114e-16 L-17.14213562373095,1.5000000000000002 " />
			<path d="M12.200000000000001,2.220446049250315e-16 L12.200000000000001,1.5000000000000002 " />
			<path d="M-12.200000000000001,2.220446049250312e-16 L-12.200000000000001,1.5000000000000002 " />
			<path d="M12.2,1.820765760385257e-15 L12.2,19.300000000000004 " />
			<path d="M-12.200000000000003,1.820765760385257e-15 L-12.200000000000003,19.300000000000004 " />
			<path d="M10.2,19.300000000000004 L10.423928952206614,19.300000000000004 L10.645041867912628,19.300000000000004 L10.860558123910334,19.300000000000004 L11.067767478235115,19.300000000000004 L11.264064153030672,19.300000000000004 L11.446979603717466,19.300000000000004 L11.614213562373093,19.300000000000004 L11.763662964936058,19.300000000000004 L11.893448398456567,19.300000000000004 L12.001937735804837,19.300000000000004 L12.087766660616735,19.300000000000004 L12.149855824363646,19.300000000000004 L12.187424419786485,19.300000000000004 L12.2,19.300000000000004 " />
			<path d="M-10.200000000000003,19.300000000000004 L-10.423928952206618,19.300000000000004 L-10.645041867912632,19.300000000000004 L-10.860558123910337,19.300000000000004 L-11.067767478235119,19.300000000000004 L-11.264064153030676,19.300000000000004 L-11.44697960371747,19.300000000000004 L-11.614213562373099,19.300000000000004 L-11.763662964936062,19.300000000000004 L-11.89344839845657,19.300000000000004 L-12.001937735804841,19.300000000000004 L-12.087766660616738,19.300000000000004 L-12.14985582436365,19.300000000000004 L-12.187424419786488,19.300000000000004 L-12.200000000000001,19.300000000000004 " />
			<path d="M13.042135623730951,1.5 L13.042135623730951,0.0 " />
			<path d="M15.24213562373095,1.5 L15.24213562373095,0.0 " />
			<path d="M-15.24213562373095,1.5 L-15.24213562373095,0.0 " />
			<path d="M-13.042135623730951,1.5 L-13.042135623730951,0.0 " />

       </g>

       <!-- solid lines -->
       <g  stroke="rgb(0,0,0)" fill="none">
			<path d="M-15.142135623730951,-4.440892098500628e-16 L-15.366064575937566,-4.4269303997995637e-16 L-15.58717749164358,-4.385220880158302e-16 L-15.802693747641285,-4.3162880609867586e-16 L-16.009903101966067,-4.2209988124817696e-16 L-16.206199776761622,-4.1005514522313945e-16 L-16.389115227448418,-3.9564606756759685e-16 L-16.556349186104047,-3.790538507934091e-16 L-16.70579858866701,-3.6048715165354016e-16 L-16.83558402218752,-3.401794571623236e-16 L-16.94407335953579,-3.183861483607852e-16 L-17.029902284347685,-2.9538128875187665e-16 L-17.091991448094596,-2.7145417779291045e-16 L-17.129560043517436,-2.4690571278702875e-16 L-17.14213562373095,-2.2204460492503363e-16 " />
			<path d="M15.142135623730951,-4.4408920985006247e-16 L15.366064575937568,-4.42693039979956e-16 L15.58717749164358,-4.3852208801582983e-16 L15.802693747641285,-4.3162880609867547e-16 L16.009903101966067,-4.2209988124817657e-16 L16.206199776761625,-4.10055145223139e-16 L16.389115227448418,-3.9564606756759635e-16 L16.556349186104047,-3.7905385079340865e-16 L16.70579858866701,-3.604871516535397e-16 L16.83558402218752,-3.401794571623231e-16 L16.94407335953579,-3.183861483607847e-16 L17.029902284347685,-2.9538128875187615e-16 L17.0919914480946,-2.7145417779290996e-16 L17.129560043517436,-2.4690571278702826e-16 L17.14213562373095,-2.2204460492503215e-16 " />
			<path d="M-15.142135623730951,-4.440892098500628e-16 L-14.200000000000001,-4.440892098500628e-16 " />
			<path d="M14.200000000000001,-4.440892098500624e-16 L15.142135623730951,-4.440892098500624e-16 " />
			<path d="M-14.200000000000001,-4.440892098500628e-16 L-13.976071047793384,-4.4269303997995637e-16 L-13.754958132087372,-4.385220880158302e-16 L-13.539441876089667,-4.3162880609867586e-16 L-13.332232521764885,-4.2209988124817696e-16 L-13.135935846969328,-4.100551452231394e-16 L-12.953020396282534,-3.9564606756759675e-16 L-12.785786437626905,-3.7905385079340905e-16 L-12.636337035063942,-3.604871516535401e-16 L-12.506551601543432,-3.401794571623235e-16 L-12.398062264195163,-3.183861483607851e-16 L-12.312233339383265,-2.9538128875187655e-16 L-12.250144175636354,-2.7145417779291036e-16 L-12.212575580213516,-2.4690571278702865e-16 L-12.200000000000001,-2.2204460492503254e-16 " />
			<path d="M14.200000000000001,-4.440892098500625e-16 L13.976071047793386,-4.4269303997995603e-16 L13.754958132087372,-4.3852208801582983e-16 L13.539441876089668,-4.3162880609867547e-16 L13.332232521764885,-4.2209988124817657e-16 L13.135935846969328,-4.1005514522313906e-16 L12.953020396282534,-3.9564606756759645e-16 L12.785786437626907,-3.7905385079340875e-16 L12.636337035063942,-3.604871516535398e-16 L12.506551601543434,-3.401794571623232e-16 L12.398062264195163,-3.183861483607848e-16 L12.312233339383265,-2.9538128875187625e-16 L12.250144175636354,-2.7145417779291006e-16 L12.212575580213516,-2.4690571278702836e-16 L12.200000000000003,-2.2204460492503323e-16 " />
			<path d="M-10.2,-2.0428103653102883e-15 L-10.423928952206614,-2.041414195440182e-15 L-10.645041867912628,-2.0372432434760558e-15 L-10.860558123910334,-2.030349961558901e-15 L-11.067767478235115,-2.0208210367084023e-15 L-11.264064153030672,-2.0087763006833647e-15 L-11.446979603717466,-1.9943672230278223e-15 L-11.614213562373093,-1.9777750062536346e-15 L-11.763662964936058,-1.9592083071137655e-15 L-11.893448398456567,-1.938900612622549e-15 L-12.001937735804837,-1.9171073038210105e-15 L-12.087766660616735,-1.894102444212102e-15 L-12.149855824363646,-1.8701753332531358e-15 L-12.187424419786485,-1.845626868247254e-15 L-12.199999999999998,-1.820765760385259e-15 " />
			<path d="M10.200000000000003,-2.0428103653102883e-15 L10.42392895220662,-2.041414195440182e-15 L10.645041867912632,-2.0372432434760558e-15 L10.860558123910337,-2.030349961558901e-15 L11.067767478235119,-2.0208210367084023e-15 L11.264064153030676,-2.0087763006833647e-15 L11.44697960371747,-1.9943672230278223e-15 L11.614213562373099,-1.9777750062536346e-15 L11.763662964936064,-1.9592083071137655e-15 L11.893448398456572,-1.938900612622549e-15 L12.001937735804841,-1.9171073038210105e-15 L12.087766660616738,-1.894102444212102e-15 L12.14985582436365,-1.8701753332531358e-15 L12.187424419786488,-1.845626868247254e-15 L12.200000000000003,-1.8207657603852578e-15 " />
			<path d="M-10.2,-2.0428103653102883e-15 L10.200000000000003,-2.042810365310288e-15 " />
			<path d="M14.200000000000001,1.4999999999999996 L13.976071047793386,1.4999999999999996 L13.754958132087372,1.4999999999999996 L13.539441876089667,1.4999999999999996 L13.332232521764885,1.4999999999999996 L13.135935846969328,1.4999999999999996 L12.953020396282534,1.4999999999999996 L12.785786437626907,1.4999999999999996 L12.636337035063942,1.4999999999999996 L12.506551601543434,1.4999999999999996 L12.398062264195163,1.4999999999999998 L12.312233339383265,1.4999999999999998 L12.250144175636354,1.4999999999999998 L12.212575580213516,1.4999999999999998 L12.200000000000001,1.4999999999999998 " />
			<path d="M14.200000000000001,1.4999999999999996 L15.142135623730951,1.4999999999999996 " />
			<path d="M15.142135623730951,1.4999999999999996 L15.366064575937568,1.4999999999999996 L15.58717749164358,1.4999999999999996 L15.802693747641285,1.4999999999999996 L16.009903101966067,1.4999999999999996 L16.206199776761625,1.4999999999999996 L16.389115227448418,1.4999999999999996 L16.556349186104047,1.4999999999999996 L16.70579858866701,1.4999999999999996 L16.83558402218752,1.4999999999999996 L16.94407335953579,1.4999999999999998 L17.029902284347685,1.4999999999999998 L17.0919914480946,1.4999999999999998 L17.129560043517436,1.4999999999999998 L17.14213562373095,1.4999999999999998 " />
			<path d="M-15.142135623730951,1.4999999999999996 L-15.366064575937566,1.4999999999999996 L-15.58717749164358,1.4999999999999996 L-15.802693747641285,1.4999999999999996 L-16.009903101966067,1.4999999999999996 L-16.206199776761622,1.4999999999999996 L-16.389115227448418,1.4999999999999996 L-16.556349186104047,1.4999999999999996 L-16.70579858866701,1.4999999999999996 L-16.83558402218752,1.4999999999999996 L-16.94407335953579,1.4999999999999998 L-17.029902284347685,1.4999999999999998 L-17.091991448094596,1.4999999999999998 L-17.129560043517436,1.4999999999999998 L-17.14213562373095,1.4999999999999998 " />
			<path d="M-15.142135623730951,1.4999999999999996 L-14.200000000000001,1.4999999999999996 " />
			<path d="M-12.200000000000001,1.4999999999999998 L-12.212575580213516,1.4999999999999998 L-12.250144175636354,1.4999999999999998 L-12.312233339383265,1.4999999999999998 L-12.398062264195163,1.4999999999999998 L-12.506551601543432,1.4999999999999996 L-12.636337035063942,1.4999999999999996 L-12.785786437626905,1.4999999999999996 L-12.953020396282534,1.4999999999999996 L-13.135935846969328,1.4999999999999996 L-13.332232521764885,1.4999999999999996 L-13.539441876089667,1.4999999999999996 L-13.754958132087372,1.4999999999999996 L-13.976071047793384,1.4999999999999996 L-14.199999999999998,1.4999999999999996 " />
			<path d="M-10.2,19.299999999999997 L10.200000000000003,19.299999999999997 " />
			<path d="M12.200000000000003,-1.820765760385257e-15 L12.200000000000003,19.299999999999997 " />
			<path d="M10.200000000000003,19.299999999999997 L10.42392895220662,19.299999999999997 L10.645041867912632,19.299999999999997 L10.860558123910337,19.299999999999997 L11.067767478235119,19.299999999999997 L11.264064153030676,19.299999999999997 L11.44697960371747,19.299999999999997 L11.614213562373099,19.299999999999997 L11.763662964936064,19.299999999999997 L11.893448398456572,19.299999999999997 L12.001937735804841,19.299999999999997 L12.087766660616738,19.299999999999997 L12.14985582436365,19.299999999999997 L12.187424419786488,19.299999999999997 L12.200000000000003,19.299999999999997 " />
			<path d="M-12.2,-1.820765760385257e-15 L-12.2,19.299999999999997 " />
			<path d="M-10.2,19.299999999999997 L-10.423928952206614,19.299999999999997 L-10.645041867912628,19.299999999999997 L-10.860558123910334,19.299999999999997 L-11.067767478235115,19.299999999999997 L-11.264064153030672,19.299999999999997 L-11.446979603717466,19.299999999999997 L-11.614213562373093,19.299999999999997 L-11.763662964936058,19.299999999999997 L-11.893448398456567,19.299999999999997 L-12.001937735804837,19.299999999999997 L-12.087766660616735,19.299999999999997 L-12.149855824363646,19.299999999999997 L-12.187424419786485,19.299999999999997 L-12.199999999999998,19.299999999999997 " />
			<path d="M17.14213562373095,-2.2204460492503114e-16 L17.14213562373095,1.4999999999999998 " />
			<path d="M-17.14213562373095,-2.2204460492503155e-16 L-17.14213562373095,1.4999999999999998 " />
			<path d="M17.14213562373095,2.2204460492503155e-16 L17.14213562373095,1.5000000000000002 " />
			<path d="M-10.2,-2.0428103653102883e-15 L-10.2,19.299999999999997 " />
			<path d="M10.200000000000003,-2.0428103653102883e-15 L10.200000000000003,19.299999999999997 " />
			<path d="M14.200000000000001,-4.440892098500624e-16 L14.200000000000001,1.4999999999999996 " />
			<path d="M-14.200000000000001,-4.440892098500628e-16 L-14.200000000000001,1.4999999999999996 " />
			<path d="M15.142135623730951,-4.440892098500624e-16 L15.142135623730951,1.4999999999999996 " />
			<path d="M-15.142135623730951,-4.440892098500628e-16 L-15.142135623730951,1.4999999999999996 " />

       </g>
    </g>
    
</svg>
