<?xml version="1.0" encoding="UTF-8" standalone="no"?>
<svg
   xmlns:svg="http://www.w3.org/2000/svg"
   xmlns="http://www.w3.org/2000/svg"
   width="500.0"
   height="500.0"

>
    <g transform="scale(10.714285653061225, -10.714285653061225)   translate(14.616666777333332,-5.366666777333334)" stroke-width="0.25"  fill="none">
       <!-- hidden lines -->
       <g  stroke="rgb(160,160,160)" fill="none" stroke-dasharray="0.25,0.25" >
			<path d="M12.35,0.4999999999999989 L12.35,0.8358934283099224 L12.35,1.1675628018689421 L12.35,1.4908371858655 L12.35,1.8016512173526733 L12.35,2.0960962295460086 L12.35,2.3704694055761997 L12.35,2.621320343559641 L12.35,2.8454944474040893 L12.35,3.040172597684852 L12.35,3.202906603707257 L12.35,3.3316499909251025 L12.35,3.4247837365454705 L12.35,3.4811366296797273 L12.35,3.4999999999999987 " />
			<path d="M12.350000000000001,-27.25 L12.350000000000001,0.5 " />
			<path d="M12.35,-14.75 L12.35,-14.62683907628636 L12.35,-14.505226972648053 L12.35,-14.386693031849315 L12.35,-14.272727886970685 L12.35,-14.16476471583313 L12.35,-14.064161217955393 L12.35,-13.972182540694797 L12.35,-13.889985369285167 L12.35,-13.818603380848888 L12.35,-13.758934245307339 L12.35,-13.711728336660796 L12.35,-13.677579296599994 L12.35,-13.656916569117433 L12.35,-13.65 " />
			<path d="M12.35,-13.65 L12.35,-13.677579296599994 L12.35,-13.758934245307339 L12.35,-13.889985369285167 L12.35,-14.064161217955393 L12.35,-14.272727886970687 L12.35,-14.505226972648055 L12.35,-14.75 L12.35,-14.994773027351945 L12.35,-15.227272113029313 L12.35,-15.435838782044607 L12.35,-15.610014630714833 L12.35,-15.741065754692661 L12.35,-15.822420703400006 L12.35,-15.849999999999998 " />
			<path d="M12.35,-15.85 L12.35,-15.843083430882567 L12.35,-15.822420703400006 L12.35,-15.788271663339204 L12.35,-15.741065754692661 L12.35,-15.681396619151112 L12.35,-15.610014630714833 L12.35,-15.527817459305203 L12.35,-15.435838782044607 L12.35,-15.33523528416687 L12.35,-15.227272113029315 L12.35,-15.113306968150685 L12.35,-14.994773027351947 L12.35,-14.87316092371364 L12.35,-14.750000000000009 " />
			<path d="M12.35,3.5 L12.35,3.4122476926363827 L12.35,3.153391037658467 L12.35,2.736410188638104 L12.35,2.1822143065055672 L12.35,1.5185930869114534 L12.35,0.7788232688471004 L12.35,4.004832108276882e-17 L12.35,-0.7788232688471003 L12.35,-1.5185930869114534 L12.35,-2.1822143065055672 L12.35,-2.7364101886381045 L12.35,-3.1533910376584666 L12.35,-3.4122476926363827 L12.35,-3.4999999999999964 " />
			<path d="M12.35,-3.5 L12.35,-3.477992734626349 L12.35,-3.4122476926363827 L12.35,-3.3035916560792864 L12.35,-3.1533910376584675 L12.35,-2.9635346972989947 L12.35,-2.736410188638104 L12.35,-2.4748737341529163 L12.35,-2.1822143065055677 L12.35,-1.8621122678036786 L12.35,-1.5185930869114537 L12.35,-1.1559767168430852 L12.35,-0.778823268847101 L12.35,-0.39187566636157795 L12.35,-3.141931159689193e-14 " />
			<path d="M12.35,3.885780586188048e-16 L12.35,0.3918756663615779 L12.35,0.7788232688471007 L12.35,1.1559767168430852 L12.35,1.518593086911454 L12.35,1.8621122678036783 L12.35,2.1822143065055677 L12.35,2.4748737341529163 L12.35,2.736410188638105 L12.35,2.9635346972989947 L12.35,3.153391037658467 L12.35,3.3035916560792864 L12.35,3.4122476926363827 L12.35,3.477992734626349 L12.35,3.4999999999999996 " />
			<path d="M12.35,3.5 L-12.35,3.5 " />
			<path d="M-12.35,0.4999999999999989 L-12.35,0.8358934283099224 L-12.35,1.1675628018689421 L-12.35,1.4908371858655 L-12.35,1.8016512173526733 L-12.35,2.0960962295460086 L-12.35,2.3704694055761997 L-12.35,2.621320343559641 L-12.35,2.8454944474040893 L-12.35,3.040172597684852 L-12.35,3.202906603707257 L-12.35,3.3316499909251025 L-12.35,3.4247837365454705 L-12.35,3.4811366296797273 L-12.35,3.4999999999999987 " />
			<path d="M12.350000000000001,-27.25 L-12.349999999999998,-27.25 " />
			<path d="M8.249999999999966,-27.25 L8.641875666361546,-27.25 L9.028823268847072,-27.25 L9.405976716843059,-27.25 L9.768593086911432,-27.25 L10.11211226780366,-27.25 L10.432214306505553,-27.25 L10.724873734152904,-27.25 L10.986410188638096,-27.25 L11.21353469729899,-27.25 L11.403391037658464,-27.25 L11.553591656079284,-27.25 L11.662247692636381,-27.25 L11.727992734626348,-27.25 L11.749999999999998,-27.25 " />
			<path d="M11.749999999999998,-27.25 L11.662247692636381,-27.25 L11.403391037658466,-27.25 L10.986410188638102,-27.25 L10.432214306505568,-27.25 L9.768593086911453,-27.25 L9.0288232688471,-27.25 L8.25,-27.25 L7.471176731152899,-27.25 L6.731406913088546,-27.25 L6.067785693494432,-27.25 L5.513589811361895,-27.25 L5.096608962341532,-27.25 L4.8377523073636155,-27.25 L4.750000000000002,-27.25 " />
			<path d="M4.749999999999998,-27.25 L4.772007265373649,-27.25 L4.837752307363615,-27.25 L4.94640834392071,-27.25 L5.096608962341527,-27.25 L5.2864653027009965,-27.25 L5.513589811361885,-27.25 L5.77512626584707,-27.25 L6.067785693494416,-27.25 L6.387887732196303,-27.25 L6.731406913088524,-27.25 L7.09402328315689,-27.25 L7.4711767311528705,-27.25 L7.858124333638391,-27.25 L8.24999999999996,-27.25 " />
			<path d="M-8.250000031000948,-27.25 L-7.858124362244014,-27.25 L-7.471176757058919,-27.25 L-7.09402330614792,-27.25 L-6.731406933039183,-27.25 L-6.387887749070842,-27.25 L-6.067785707344443,-27.25 L-5.775126276807574,-27.25 L-5.513589819645656,-27.25 L-5.2864653085915405,-27.25 L-5.09660896618462,-27.25 L-4.946408346114778,-27.25 L-4.837752308349097,-27.25 L-4.772007265621581,-27.25 L-4.750000000000003,-27.25 " />
			<path d="M-4.750000000000002,-27.25 L-4.837752307363619,-27.25 L-5.096608962341535,-27.25 L-5.513589811361898,-27.25 L-6.067785693494433,-27.25 L-6.731406913088547,-27.25 L-7.4711767311529,-27.25 L-8.25,-27.25 L-9.028823268847102,-27.25 L-9.768593086911455,-27.25 L-10.432214306505568,-27.25 L-10.986410188638105,-27.25 L-11.40339103765847,-27.25 L-11.662247692636384,-27.25 L-11.749999999999998,-27.25 " />
			<path d="M-11.750000000000002,-27.25 L-11.72799273487428,-27.25 L-11.662247693621865,-27.25 L-11.553591658273351,-27.25 L-11.403391041501557,-27.25 L-11.21353470318953,-27.25 L-10.986410196921867,-27.25 L-10.724873745113408,-27.25 L-10.432214320355579,-27.25 L-10.112112284678199,-27.25 L-9.768593106862088,-27.25 L-9.40597673983409,-27.25 L-9.02882329475312,-27.25 L-8.641875694967169,-27.25 L-8.250000031000955,-27.25 " />
			<path d="M-12.349999999999998,-27.25 L-12.349999999999998,0.5 " />
			<path d="M9.800000000000002,-9.992007221626409e-16 L-9.799999999999999,-9.992007221626409e-16 " />
			<path d="M-9.799999999999999,0.0 L-9.799999999999999,-25.25 " />
			<path d="M9.800000000000002,-25.25 L-9.799999999999999,-25.25 " />
			<path d="M9.800000000000002,0.0 L9.800000000000002,-25.25 " />
			<path d="M9.8,-14.75 L9.8,-14.62683907628636 L9.8,-14.505226972648053 L9.8,-14.386693031849315 L9.8,-14.272727886970685 L9.8,-14.16476471583313 L9.8,-14.064161217955393 L9.8,-13.972182540694797 L9.8,-13.889985369285167 L9.8,-13.818603380848888 L9.8,-13.758934245307339 L9.8,-13.711728336660796 L9.8,-13.677579296599994 L9.8,-13.656916569117433 L9.8,-13.65 " />
			<path d="M9.8,-13.65 L9.8,-13.677579296599994 L9.8,-13.758934245307339 L9.8,-13.889985369285167 L9.8,-14.064161217955393 L9.8,-14.272727886970687 L9.8,-14.505226972648055 L9.8,-14.75 L9.8,-14.994773027351945 L9.8,-15.227272113029313 L9.8,-15.435838782044607 L9.8,-15.610014630714833 L9.8,-15.741065754692661 L9.8,-15.822420703400006 L9.8,-15.849999999999998 " />
			<path d="M9.8,-15.85 L9.8,-15.843083430882567 L9.8,-15.822420703400006 L9.8,-15.788271663339204 L9.8,-15.741065754692661 L9.8,-15.681396619151112 L9.8,-15.610014630714833 L9.8,-15.527817459305203 L9.8,-15.435838782044607 L9.8,-15.33523528416687 L9.8,-15.227272113029315 L9.8,-15.113306968150685 L9.8,-14.994773027351947 L9.8,-14.87316092371364 L9.8,-14.750000000000009 " />
			<path d="M12.45,3.5 L12.45,3.4122476926363827 L12.45,3.153391037658467 L12.45,2.736410188638104 L12.45,2.1822143065055672 L12.45,1.5185930869114534 L12.45,0.7788232688471004 L12.45,4.004832108276882e-17 L12.45,-0.7788232688471003 L12.45,-1.5185930869114534 L12.45,-2.1822143065055672 L12.45,-2.7364101886381045 L12.45,-3.1533910376584666 L12.45,-3.4122476926363827 L12.45,-3.4999999999999964 " />
			<path d="M-12.35,-14.75 L-12.35,-14.87316092371364 L-12.35,-14.994773027351945 L-12.35,-15.113306968150683 L-12.35,-15.227272113029313 L-12.35,-15.33523528416687 L-12.35,-15.435838782044607 L-12.35,-15.527817459305203 L-12.35,-15.610014630714833 L-12.35,-15.681396619151112 L-12.35,-15.741065754692661 L-12.35,-15.788271663339204 L-12.35,-15.822420703400006 L-12.35,-15.843083430882567 L-12.35,-15.85 " />
			<path d="M-12.35,-15.85 L-12.35,-15.822420703400006 L-12.35,-15.741065754692661 L-12.35,-15.610014630714833 L-12.35,-15.435838782044607 L-12.35,-15.227272113029315 L-12.35,-14.994773027351947 L-12.35,-14.75 L-12.35,-14.505226972648055 L-12.35,-14.272727886970687 L-12.35,-14.064161217955395 L-12.35,-13.889985369285167 L-12.35,-13.758934245307339 L-12.35,-13.677579296599994 L-12.35,-13.650000000000002 " />
			<path d="M-12.35,-13.65 L-12.35,-13.656916569117433 L-12.35,-13.677579296599994 L-12.35,-13.711728336660796 L-12.35,-13.758934245307339 L-12.35,-13.818603380848888 L-12.35,-13.889985369285167 L-12.35,-13.972182540694797 L-12.35,-14.064161217955393 L-12.35,-14.16476471583313 L-12.35,-14.272727886970685 L-12.35,-14.386693031849315 L-12.35,-14.505226972648053 L-12.35,-14.62683907628636 L-12.35,-14.749999999999991 " />
			<path d="M-12.35,3.885780586188048e-16 L-12.35,-0.39187566636157717 L-12.35,-0.7788232688471002 L-12.35,-1.1559767168430843 L-12.35,-1.5185930869114532 L-12.35,-1.8621122678036781 L-12.35,-2.1822143065055672 L-12.35,-2.474873734152916 L-12.35,-2.736410188638104 L-12.35,-2.9635346972989947 L-12.35,-3.1533910376584675 L-12.35,-3.3035916560792864 L-12.35,-3.4122476926363827 L-12.35,-3.477992734626349 L-12.35,-3.4999999999999996 " />
			<path d="M-12.35,-3.5 L-12.35,-3.4122476926363827 L-12.35,-3.153391037658467 L-12.35,-2.736410188638105 L-12.35,-2.182214306505568 L-12.35,-1.5185930869114543 L-12.35,-0.7788232688471011 L-12.35,-8.172044383203784e-16 L-12.35,0.7788232688470996 L-12.35,1.5185930869114526 L-12.35,2.1822143065055664 L-12.35,2.7364101886381036 L-12.35,3.1533910376584666 L-12.35,3.4122476926363827 L-12.35,3.4999999999999964 " />
			<path d="M-12.35,3.5 L-12.35,3.477992734626349 L-12.35,3.4122476926363827 L-12.35,3.3035916560792864 L-12.35,3.1533910376584675 L-12.35,2.9635346972989947 L-12.35,2.736410188638105 L-12.35,2.4748737341529172 L-12.35,2.1822143065055686 L-12.35,1.862112267803679 L-12.35,1.5185930869114546 L-12.35,1.1559767168430861 L-12.35,0.7788232688471016 L-12.35,0.3918756663615787 L-12.35,3.219646771412954e-14 " />
			<path d="M-4.286263797015736e-16,3.885780586188048e-16 L-9.8,3.885780586188048e-16 " />
			<path d="M-4.286263797015736e-16,3.885780586188048e-16 L9.8,3.885780586188048e-16 " />
			<path d="M-9.8,3.885780586188048e-16 L-9.8,-0.391875666361577 L-9.8,-0.7788232688470998 L-9.8,-1.155976716843084 L-9.8,-1.5185930869114526 L-9.8,-1.8621122678036774 L-9.8,-2.1822143065055664 L-9.8,-2.4748737341529154 L-9.8,-2.7364101886381036 L-9.8,-2.963534697298994 L-9.8,-3.1533910376584666 L-9.8,-3.303591656079286 L-9.8,-3.4122476926363823 L-9.8,-3.477992734626349 L-9.8,-3.4999999999999996 " />
			<path d="M-9.8,-3.5 L-9.8,-3.477992734626349 L-9.8,-3.412247692636383 L-9.8,-3.303591656079287 L-9.8,-3.153391037658468 L-9.8,-2.9635346972989955 L-9.8,-2.736410188638106 L-9.8,-2.474873734152918 L-9.8,-2.182214306505569 L-9.8,-1.8621122678036797 L-9.8,-1.5185930869114557 L-9.8,-1.155976716843087 L-9.8,-0.7788232688471026 L-9.8,-0.39187566636157983 L-9.8,-1.63202784619898e-14 " />
			<path d="M-9.8,-14.75 L-9.8,-14.87316092371364 L-9.8,-14.994773027351945 L-9.8,-15.113306968150683 L-9.8,-15.227272113029313 L-9.8,-15.33523528416687 L-9.8,-15.435838782044607 L-9.8,-15.527817459305203 L-9.8,-15.610014630714833 L-9.8,-15.681396619151112 L-9.8,-15.741065754692661 L-9.8,-15.788271663339204 L-9.8,-15.822420703400006 L-9.8,-15.843083430882567 L-9.8,-15.85 " />
			<path d="M-9.8,-15.85 L-9.8,-15.822420703400006 L-9.8,-15.741065754692661 L-9.8,-15.610014630714833 L-9.8,-15.435838782044607 L-9.8,-15.227272113029315 L-9.8,-14.994773027351947 L-9.8,-14.75 L-9.8,-14.505226972648055 L-9.8,-14.272727886970687 L-9.8,-14.064161217955395 L-9.8,-13.889985369285167 L-9.8,-13.758934245307339 L-9.8,-13.677579296599994 L-9.8,-13.650000000000002 " />
			<path d="M-9.8,-13.65 L-9.8,-13.656916569117433 L-9.8,-13.677579296599994 L-9.8,-13.711728336660796 L-9.8,-13.758934245307339 L-9.8,-13.818603380848888 L-9.8,-13.889985369285167 L-9.8,-13.972182540694797 L-9.8,-14.064161217955393 L-9.8,-14.16476471583313 L-9.8,-14.272727886970685 L-9.8,-14.386693031849315 L-9.8,-14.505226972648053 L-9.8,-14.62683907628636 L-9.8,-14.749999999999991 " />
			<path d="M9.8,4.004832108276882e-17 L9.8,-0.39187566636157745 L9.8,-0.7788232688471003 L9.8,-1.1559767168430848 L9.8,-1.5185930869114534 L9.8,-1.862112267803678 L9.8,-2.1822143065055672 L9.8,-2.4748737341529163 L9.8,-2.7364101886381045 L9.8,-2.9635346972989947 L9.8,-3.1533910376584666 L9.8,-3.303591656079286 L9.8,-3.4122476926363827 L9.8,-3.477992734626349 L9.8,-3.4999999999999982 " />
			<path d="M9.8,-3.5 L9.8,-3.477992734626349 L9.8,-3.4122476926363827 L9.8,-3.3035916560792864 L9.8,-3.1533910376584675 L9.8,-2.9635346972989947 L9.8,-2.736410188638104 L9.8,-2.4748737341529163 L9.8,-2.1822143065055677 L9.8,-1.8621122678036786 L9.8,-1.5185930869114537 L9.8,-1.1559767168430852 L9.8,-0.778823268847101 L9.8,-0.39187566636157795 L9.8,-3.141931159689193e-14 " />
			<path d="M11.749999999999998,-31.5 L11.662247692636381,-31.5 L11.403391037658466,-31.5 L10.986410188638102,-31.5 L10.432214306505568,-31.5 L9.768593086911453,-31.5 L9.0288232688471,-31.5 L8.25,-31.5 L7.471176731152899,-31.5 L6.731406913088546,-31.5 L6.067785693494432,-31.5 L5.513589811361895,-31.5 L5.096608962341532,-31.5 L4.8377523073636155,-31.5 L4.750000000000002,-31.5 " />
			<path d="M-4.750000000000002,-31.5 L-4.837752307363619,-31.5 L-5.096608962341535,-31.5 L-5.513589811361898,-31.5 L-6.067785693494433,-31.5 L-6.731406913088547,-31.5 L-7.4711767311529,-31.5 L-8.25,-31.5 L-9.028823268847102,-31.5 L-9.768593086911455,-31.5 L-10.432214306505568,-31.5 L-10.986410188638105,-31.5 L-11.40339103765847,-31.5 L-11.662247692636384,-31.5 L-11.749999999999998,-31.5 " />
			<path d="M9.8,-3.885780586188048e-16 L4.286263797015736e-16,-3.885780586188048e-16 " />
			<path d="M-9.8,-3.885780586188048e-16 L4.286263797015736e-16,-3.885780586188048e-16 " />
			<path d="M12.75,3.2 L12.75,3.119769318981836 L12.75,2.8831003772877413 L12.75,2.501860743897696 L12.75,1.9951673659479474 L12.75,1.3884279651761862 L12.75,0.7120669886602061 L12.75,3.6615607847102933e-17 L12.75,-0.7120669886602061 L12.75,-1.388427965176186 L12.75,-1.9951673659479472 L12.75,-2.501860743897695 L12.75,-2.8831003772877413 L12.75,-3.119769318981836 L12.75,-3.199999999999997 " />
			<path d="M-12.45,3.5 L-12.45,3.4122476926363827 L-12.45,3.153391037658467 L-12.45,2.736410188638104 L-12.45,2.1822143065055672 L-12.45,1.5185930869114534 L-12.45,0.7788232688471004 L-12.45,4.004832108276882e-17 L-12.45,-0.7788232688471003 L-12.45,-1.5185930869114534 L-12.45,-2.1822143065055672 L-12.45,-2.7364101886381045 L-12.45,-3.1533910376584666 L-12.45,-3.4122476926363827 L-12.45,-3.4999999999999964 " />
			<path d="M4.286263797015736e-16,4.004832108276882e-17 L4.2593126699179083e-16,-0.39187566636157745 L4.178798214685088e-16,-0.7788232688471003 L4.0457329473074016e-16,-1.1559767168430848 L3.8617902407283923e-16,-1.5185930869114534 L3.6292832812093334e-16,-1.862112267803678 L3.351135978669859e-16,-2.1822143065055672 L3.0308461968242264e-16,-2.4748737341529163 L2.672441765515605e-16,-2.7364101886381045 L2.280429828418793e-16,-2.9635346972989947 L1.85974016309341e-16,-3.1533910376584666 L1.4156631861707504e-16,-3.303591656079286 L9.537834232950804e-17,-3.4122476926363827 L4.799092804734423e-17,-3.477992734626349 L3.821045009664276e-30,-3.4999999999999982 " />
			<path d="M6.999999999999998,-31.5 L7.031340109772719,-31.5 L7.123788915121974,-31.5 L7.272710646914961,-31.5 L7.470637747676581,-31.5 L7.707645326103051,-31.5 L7.971848832554605,-31.5 L8.249999999999998,-31.5 L8.528151167445392,-31.5 L8.792354673896947,-31.5 L9.029362252323416,-31.5 L9.227289353085036,-31.5 L9.376211084878022,-31.5 L9.468659890227277,-31.5 L9.499999999999998,-31.5 " />
			<path d="M9.499999999999998,-31.5 L9.468659890227277,-31.5 L9.376211084878022,-31.5 L9.227289353085036,-31.5 L9.029362252323416,-31.5 L8.792354673896947,-31.5 L8.528151167445392,-31.5 L8.249999999999998,-31.5 L7.971848832554605,-31.5 L7.707645326103051,-31.5 L7.470637747676582,-31.5 L7.272710646914962,-31.5 L7.123788915121974,-31.5 L7.031340109772719,-31.5 L6.999999999999999,-31.5 " />
			<path d="M-9.500000000000002,-31.5 L-9.468659890227281,-31.5 L-9.376211084878026,-31.5 L-9.22728935308504,-31.5 L-9.029362252323418,-31.5 L-8.792354673896948,-31.5 L-8.528151167445396,-31.5 L-8.250000000000002,-31.5 L-7.971848832554609,-31.5 L-7.707645326103054,-31.5 L-7.470637747676585,-31.5 L-7.272710646914964,-31.5 L-7.1237889151219775,-31.5 L-7.031340109772723,-31.5 L-7.000000000000003,-31.5 " />
			<path d="M-7.000000000000002,-31.5 L-7.031340109772723,-31.5 L-7.1237889151219775,-31.5 L-7.272710646914964,-31.5 L-7.470637747676585,-31.5 L-7.707645326103054,-31.5 L-7.971848832554608,-31.5 L-8.250000000000002,-31.5 L-8.528151167445394,-31.5 L-8.792354673896948,-31.5 L-9.029362252323418,-31.5 L-9.22728935308504,-31.5 L-9.376211084878026,-31.5 L-9.468659890227281,-31.5 L-9.5,-31.5 " />
			<path d="M12.750000199999999,1.25 L12.750000199999999,1.2491258809854981 L12.750000199999999,1.2465047464764751 L12.750000199999999,1.2421402623665532 L12.750000199999999,1.2360385327814107 L12.750000199999999,1.2282080915416103 L12.750000199999999,1.2186598902272796 L12.750000199999999,1.2074072828613356 L12.750000199999999,1.194466007232676 L12.750000199999999,1.1798541628854597 L12.750000199999999,1.1635921858052558 L12.750000199999999,1.1457028198374706 L12.750000199999999,1.1262110848780245 L12.750000199999999,1.1051442418807627 L12.750000199999999,1.082531754730551 " />
			<path d="M12.750000199999999,1.0825317547305484 L12.750000199999999,0.9772893530850373 L12.750000199999999,0.8502159222136491 L12.750000199999999,0.7041500725795272 L12.750000199999999,0.5423546738969471 L12.750000199999999,0.3684439680136296 L12.750000199999999,0.18630283272021717 L12.750000199999999,-1.095920052809882e-15 L12.750000199999999,-0.1863028327202193 L12.750000199999999,-0.3684439680136316 L12.750000199999999,-0.542354673896949 L12.750000199999999,-0.7041500725795291 L12.750000199999999,-0.8502159222136507 L12.750000199999999,-0.9772893530850386 L12.750000199999999,-1.0825317547305418 " />
			<path d="M12.750000199999999,-1.082531754730548 L12.750000199999999,-1.1051442418807618 L12.750000199999999,-1.1262110848780233 L12.750000199999999,-1.1457028198374695 L12.750000199999999,-1.1635921858052547 L12.750000199999999,-1.1798541628854586 L12.750000199999999,-1.1944660072326752 L12.750000199999999,-1.2074072828613345 L12.750000199999999,-1.2186598902272787 L12.750000199999999,-1.2282080915416096 L12.750000199999999,-1.23603853278141 L12.750000199999999,-1.2421402623665527 L12.750000199999999,-1.2465047464764747 L12.750000199999999,-1.249125880985498 L12.750000199999999,-1.2499999999999998 " />
			<path d="M-12.75,3.2 L-12.75,3.119769318981836 L-12.75,2.8831003772877413 L-12.75,2.501860743897696 L-12.75,1.9951673659479474 L-12.75,1.3884279651761862 L-12.75,0.7120669886602061 L-12.75,3.6615607847102933e-17 L-12.75,-0.7120669886602061 L-12.75,-1.388427965176186 L-12.75,-1.9951673659479472 L-12.75,-2.501860743897695 L-12.75,-2.8831003772877413 L-12.75,-3.119769318981836 L-12.75,-3.199999999999997 " />
			<path d="M6.999999999999999,-31.5 L6.999999999999999,-27.25 " />
			<path d="M6.999999999999998,-27.25 L7.031340109772719,-27.25 L7.123788915121974,-27.25 L7.272710646914961,-27.25 L7.470637747676581,-27.25 L7.707645326103051,-27.25 L7.971848832554605,-27.25 L8.249999999999998,-27.25 L8.528151167445392,-27.25 L8.792354673896947,-27.25 L9.029362252323416,-27.25 L9.227289353085036,-27.25 L9.376211084878022,-27.25 L9.468659890227277,-27.25 L9.499999999999998,-27.25 " />
			<path d="M9.499999999999998,-27.25 L9.468659890227277,-27.25 L9.376211084878022,-27.25 L9.227289353085036,-27.25 L9.029362252323416,-27.25 L8.792354673896947,-27.25 L8.528151167445392,-27.25 L8.249999999999998,-27.25 L7.971848832554605,-27.25 L7.707645326103051,-27.25 L7.470637747676582,-27.25 L7.272710646914962,-27.25 L7.123788915121974,-27.25 L7.031340109772719,-27.25 L6.999999999999999,-27.25 " />
			<path d="M-9.500000000000002,-31.5 L-9.500000000000002,-27.25 " />
			<path d="M-9.500000000000002,-27.25 L-9.468659890227281,-27.25 L-9.376211084878026,-27.25 L-9.22728935308504,-27.25 L-9.029362252323418,-27.25 L-8.792354673896948,-27.25 L-8.528151167445396,-27.25 L-8.250000000000002,-27.25 L-7.971848832554609,-27.25 L-7.707645326103054,-27.25 L-7.470637747676585,-27.25 L-7.272710646914964,-27.25 L-7.1237889151219775,-27.25 L-7.031340109772723,-27.25 L-7.000000000000003,-27.25 " />
			<path d="M-7.000000000000002,-27.25 L-7.031340109772723,-27.25 L-7.1237889151219775,-27.25 L-7.272710646914964,-27.25 L-7.470637747676585,-27.25 L-7.707645326103054,-27.25 L-7.971848832554608,-27.25 L-8.250000000000002,-27.25 L-8.528151167445394,-27.25 L-8.792354673896948,-27.25 L-9.029362252323418,-27.25 L-9.22728935308504,-27.25 L-9.376211084878026,-27.25 L-9.468659890227281,-27.25 L-9.5,-27.25 " />
			<path d="M12.35,1.0825317547305486 L12.35,1.1051442418807624 L12.35,1.1262110848780238 L12.35,1.14570281983747 L12.35,1.1635921858052551 L12.35,1.179854162885459 L12.35,1.1944660072326754 L12.35,1.207407282861335 L12.35,1.218659890227279 L12.35,1.2282080915416098 L12.35,1.2360385327814103 L12.35,1.242140262366553 L12.35,1.246504746476475 L12.35,1.249125880985498 L12.35,1.2499999999999998 " />
			<path d="M12.35,1.25 L12.35,1.2421402623665532 L12.35,1.2186598902272796 L12.35,1.1798541628854595 L12.35,1.126211084878024 L12.35,1.0584052490353553 L12.35,0.9772893530850375 L12.35,0.8838834764831848 L12.35,0.7793622523234173 L12.35,0.6650400956441711 L12.35,0.542354673896948 L12.35,0.41284882744395923 L12.35,0.2781511674453934 L12.35,0.13995559512913525 L12.35,1.1518563880485999e-14 " />
			<path d="M12.35,-1.0825317547305477 L12.35,-0.9772893530850368 L12.35,-0.8502159222136485 L12.35,-0.7041500725795266 L12.35,-0.5423546738969464 L12.35,-0.3684439680136288 L12.35,-0.18630283272021633 L12.35,1.928587321278749e-15 L12.35,0.18630283272022014 L12.35,0.3684439680136325 L12.35,0.5423546738969499 L12.35,0.7041500725795297 L12.35,0.8502159222136513 L12.35,0.9772893530850391 L12.35,1.0825317547305424 " />
			<path d="M12.35,-1.6738382170869375e-16 L12.35,-0.139955595129135 L12.35,-0.27815116744539325 L12.35,-0.412848827443959 L12.35,-0.5423546738969478 L12.35,-0.6650400956441709 L12.35,-0.7793622523234172 L12.35,-0.8838834764831845 L12.35,-0.9772893530850374 L12.35,-1.0584052490353555 L12.35,-1.126211084878024 L12.35,-1.1798541628854595 L12.35,-1.2186598902272796 L12.35,-1.2421402623665532 L12.35,-1.2499999999999998 " />
			<path d="M12.35,-1.25 L12.35,-1.2491258809854981 L12.35,-1.2465047464764751 L12.35,-1.2421402623665532 L12.35,-1.2360385327814105 L12.35,-1.22820809154161 L12.35,-1.2186598902272792 L12.35,-1.207407282861335 L12.35,-1.1944660072326754 L12.35,-1.1798541628854589 L12.35,-1.1635921858052545 L12.35,-1.1457028198374692 L12.35,-1.1262110848780227 L12.35,-1.1051442418807609 L12.35,-1.08253175473055 " />
			<path d="M-12.75,-1.0825317547305477 L-12.75,-0.9772893530850368 L-12.75,-0.8502159222136485 L-12.75,-0.7041500725795266 L-12.75,-0.5423546738969464 L-12.75,-0.3684439680136288 L-12.75,-0.18630283272021633 L-12.75,1.928587321278749e-15 L-12.75,0.18630283272022014 L-12.75,0.3684439680136325 L-12.75,0.5423546738969499 L-12.75,0.7041500725795297 L-12.75,0.8502159222136513 L-12.75,0.9772893530850391 L-12.75,1.0825317547305424 " />
			<path d="M-12.75,-1.6738382170869375e-16 L-12.75,-0.13995559512913486 L-12.75,-0.2781511674453929 L-12.75,-0.4128488274439586 L-12.75,-0.5423546738969472 L-12.75,-0.6650400956441702 L-12.75,-0.7793622523234164 L-12.75,-0.8838834764831838 L-12.75,-0.9772893530850366 L-12.75,-1.0584052490353546 L-12.75,-1.1262110848780233 L-12.75,-1.179854162885459 L-12.75,-1.2186598902272792 L-12.75,-1.2421402623665532 L-12.75,-1.2499999999999998 " />
			<path d="M-12.75,-1.25 L-12.75,-1.2491258809854981 L-12.75,-1.2465047464764754 L-12.75,-1.2421402623665534 L-12.75,-1.2360385327814107 L-12.75,-1.2282080915416105 L-12.75,-1.2186598902272796 L-12.75,-1.2074072828613356 L-12.75,-1.194466007232676 L-12.75,-1.1798541628854595 L-12.75,-1.1635921858052554 L-12.75,-1.1457028198374701 L-12.75,-1.1262110848780236 L-12.75,-1.105144241880762 L-12.75,-1.0825317547305504 " />
			<path d="M-12.75,1.0825317547305486 L-12.75,1.1051442418807624 L-12.75,1.1262110848780238 L-12.75,1.14570281983747 L-12.75,1.1635921858052551 L-12.75,1.179854162885459 L-12.75,1.1944660072326754 L-12.75,1.207407282861335 L-12.75,1.218659890227279 L-12.75,1.2282080915416098 L-12.75,1.2360385327814103 L-12.75,1.242140262366553 L-12.75,1.246504746476475 L-12.75,1.249125880985498 L-12.75,1.2499999999999998 " />
			<path d="M-12.75,1.25 L-12.75,1.2421402623665532 L-12.75,1.2186598902272796 L-12.75,1.1798541628854595 L-12.75,1.126211084878024 L-12.75,1.0584052490353553 L-12.75,0.9772893530850375 L-12.75,0.8838834764831848 L-12.75,0.7793622523234173 L-12.75,0.6650400956441711 L-12.75,0.542354673896948 L-12.75,0.41284882744395923 L-12.75,0.2781511674453934 L-12.75,0.13995559512913525 L-12.75,1.1518563880485999e-14 " />
			<path d="M9.8,1.3877787807814452e-16 L0.0,1.3877787807814452e-16 " />
			<path d="M-1.5308084989341916e-16,1.3877787807814457e-16 L-1.5211830963992528e-16,0.13995559512913497 L-1.492427933816103e-16,0.2781511674453931 L-1.4449046240383578e-16,0.412848827443959 L-1.3792108002601403e-16,0.5423546738969478 L-1.2961726004319048e-16,0.6650400956441708 L-1.1968342780963784e-16,0.7793622523234169 L-1.0824450702943665e-16,0.8838834764831844 L-9.544434876841443e-17,0.9772893530850374 L-8.144392244352831e-17,1.058405249035355 L-6.641929153905034e-17,1.126211084878024 L-5.055939950609821e-17,1.1798541628854595 L-3.406369368910999e-17,1.2186598902272796 L-1.7139617159765778e-17,1.2421402623665532 L-3.2971920647909478e-31,1.2499999999999998 " />
			<path d="M7.621889776449527e-33,1.25 L1.7139617159765793e-17,1.2421402623665532 L3.406369368911001e-17,1.2186598902272796 L5.055939950609822e-17,1.1798541628854595 L6.641929153905035e-17,1.126211084878024 L8.144392244352833e-17,1.0584052490353553 L9.544434876841444e-17,0.9772893530850373 L1.0824450702943667e-16,0.8838834764831843 L1.1968342780963784e-16,0.7793622523234168 L1.2961726004319048e-16,0.6650400956441708 L1.37921080026014e-16,0.5423546738969477 L1.4449046240383578e-16,0.4128488274439589 L1.492427933816103e-16,0.27815116744539303 L1.5211830963992528e-16,0.13995559512913483 L1.530808498934191e-16,5.578870698741412e-15 " />
			<path d="M0.0,-1.3877787807814457e-16 L9.8,-1.3877787807814457e-16 " />
			<path d="M9.8,-1.3877787807814457e-16 L9.8,-0.1399555951291349 L9.8,-0.27815116744539303 L9.8,-0.41284882744395884 L9.8,-0.5423546738969476 L9.8,-0.6650400956441707 L9.8,-0.7793622523234168 L9.8,-0.8838834764831844 L9.8,-0.9772893530850372 L9.8,-1.058405249035355 L9.8,-1.1262110848780238 L9.8,-1.1798541628854593 L9.8,-1.2186598902272794 L9.8,-1.2421402623665532 L9.8,-1.2499999999999998 " />
			<path d="M9.8,-1.25 L9.8,-1.2421402623665532 L9.8,-1.2186598902272796 L9.8,-1.1798541628854595 L9.8,-1.1262110848780242 L9.8,-1.0584052490353555 L9.8,-0.9772893530850376 L9.8,-0.8838834764831848 L9.8,-0.7793622523234173 L9.8,-0.6650400956441712 L9.8,-0.5423546738969481 L9.8,-0.4128488274439594 L9.8,-0.2781511674453936 L9.8,-0.13995559512913539 L9.8,-5.578870698741412e-15 " />
			<path d="M-12.350000000000001,-1.0825317547305477 L-12.350000000000001,-0.9772893530850368 L-12.350000000000001,-0.8502159222136485 L-12.350000000000001,-0.7041500725795266 L-12.350000000000001,-0.5423546738969464 L-12.350000000000001,-0.3684439680136288 L-12.350000000000001,-0.18630283272021633 L-12.350000000000001,1.928587321278749e-15 L-12.350000000000001,0.18630283272022014 L-12.350000000000001,0.3684439680136325 L-12.350000000000001,0.5423546738969499 L-12.350000000000001,0.7041500725795297 L-12.350000000000001,0.8502159222136513 L-12.350000000000001,0.9772893530850391 L-12.350000000000001,1.0825317547305424 " />
			<path d="M-12.350000000000001,-1.6738382170869375e-16 L-12.350000000000001,-0.139955595129135 L-12.350000000000001,-0.27815116744539325 L-12.350000000000001,-0.412848827443959 L-12.350000000000001,-0.5423546738969478 L-12.350000000000001,-0.6650400956441709 L-12.350000000000001,-0.7793622523234172 L-12.350000000000001,-0.8838834764831845 L-12.350000000000001,-0.9772893530850374 L-12.350000000000001,-1.0584052490353555 L-12.350000000000001,-1.126211084878024 L-12.350000000000001,-1.1798541628854595 L-12.350000000000001,-1.2186598902272796 L-12.350000000000001,-1.2421402623665532 L-12.350000000000001,-1.2499999999999998 " />
			<path d="M-12.350000000000001,-1.25 L-12.350000000000001,-1.2491258809854981 L-12.350000000000001,-1.2465047464764751 L-12.350000000000001,-1.2421402623665532 L-12.350000000000001,-1.2360385327814105 L-12.350000000000001,-1.22820809154161 L-12.350000000000001,-1.2186598902272792 L-12.350000000000001,-1.207407282861335 L-12.350000000000001,-1.1944660072326754 L-12.350000000000001,-1.1798541628854589 L-12.350000000000001,-1.1635921858052545 L-12.350000000000001,-1.1457028198374692 L-12.350000000000001,-1.1262110848780227 L-12.350000000000001,-1.1051442418807609 L-12.350000000000001,-1.08253175473055 " />
			<path d="M-12.350000000000001,1.0825317547305486 L-12.350000000000001,1.1051442418807624 L-12.350000000000001,1.1262110848780238 L-12.350000000000001,1.14570281983747 L-12.350000000000001,1.1635921858052551 L-12.350000000000001,1.179854162885459 L-12.350000000000001,1.1944660072326754 L-12.350000000000001,1.207407282861335 L-12.350000000000001,1.218659890227279 L-12.350000000000001,1.2282080915416098 L-12.350000000000001,1.2360385327814103 L-12.350000000000001,1.242140262366553 L-12.350000000000001,1.246504746476475 L-12.350000000000001,1.249125880985498 L-12.350000000000001,1.2499999999999998 " />
			<path d="M-12.350000000000001,1.25 L-12.350000000000001,1.2421402623665532 L-12.350000000000001,1.2186598902272796 L-12.350000000000001,1.1798541628854595 L-12.350000000000001,1.126211084878024 L-12.350000000000001,1.0584052490353553 L-12.350000000000001,0.9772893530850375 L-12.350000000000001,0.8838834764831848 L-12.350000000000001,0.7793622523234173 L-12.350000000000001,0.6650400956441711 L-12.350000000000001,0.542354673896948 L-12.350000000000001,0.41284882744395923 L-12.350000000000001,0.2781511674453934 L-12.350000000000001,0.13995559512913525 L-12.350000000000001,1.1518563880485999e-14 " />
			<path d="M1.5308084989341916e-16,1.430297181527459e-17 L1.5211830963992528e-16,-0.1399555951291348 L1.492427933816103e-16,-0.278151167445393 L1.4449046240383578e-16,-0.4128488274439588 L1.3792108002601403e-16,-0.5423546738969476 L1.296172600431905e-16,-0.6650400956441707 L1.1968342780963784e-16,-0.7793622523234168 L1.0824450702943668e-16,-0.8838834764831844 L9.544434876841445e-17,-0.9772893530850372 L8.144392244352834e-17,-1.058405249035355 L6.641929153905035e-17,-1.1262110848780238 L5.0559399506098223e-17,-1.1798541628854593 L3.4063693689110014e-17,-1.2186598902272796 L1.71396171597658e-17,-1.2421402623665532 L1.3650991445816728e-30,-1.2499999999999993 " />
			<path d="M1.1125107506823689e-32,-1.25 L-1.713961715976577e-17,-1.2421402623665532 L-3.4063693689109996e-17,-1.2186598902272796 L-5.05593995060982e-17,-1.1798541628854595 L-6.641929153905034e-17,-1.126211084878024 L-8.144392244352831e-17,-1.0584052490353553 L-9.544434876841443e-17,-0.9772893530850373 L-1.0824450702943665e-16,-0.8838834764831845 L-1.1968342780963782e-16,-0.779362252323417 L-1.2961726004319048e-16,-0.6650400956441709 L-1.37921080026014e-16,-0.5423546738969478 L-1.4449046240383576e-16,-0.412848827443959 L-1.4924279338161024e-16,-0.2781511674453932 L-1.5211830963992528e-16,-0.13995559512913497 L-1.5308084989341908e-16,-1.124100812432971e-14 " />
			<path d="M-9.8,-1.3877787807814457e-16 L0.0,-1.3877787807814457e-16 " />
			<path d="M-9.8,-1.3877787807814457e-16 L-9.8,-0.1399555951291349 L-9.8,-0.27815116744539303 L-9.8,-0.41284882744395884 L-9.8,-0.5423546738969476 L-9.8,-0.6650400956441707 L-9.8,-0.7793622523234168 L-9.8,-0.8838834764831844 L-9.8,-0.9772893530850372 L-9.8,-1.058405249035355 L-9.8,-1.1262110848780238 L-9.8,-1.1798541628854593 L-9.8,-1.2186598902272794 L-9.8,-1.2421402623665532 L-9.8,-1.2499999999999998 " />
			<path d="M-9.8,-1.25 L-9.8,-1.2421402623665532 L-9.8,-1.2186598902272796 L-9.8,-1.1798541628854595 L-9.8,-1.1262110848780242 L-9.8,-1.0584052490353555 L-9.8,-0.9772893530850376 L-9.8,-0.8838834764831848 L-9.8,-0.7793622523234173 L-9.8,-0.6650400956441712 L-9.8,-0.5423546738969481 L-9.8,-0.4128488274439594 L-9.8,-0.2781511674453936 L-9.8,-0.13995559512913539 L-9.8,-5.578870698741412e-15 " />
			<path d="M0.0,1.3877787807814452e-16 L-9.8,1.3877787807814452e-16 " />
			<path d="M12.35,-13.65 L9.8,-13.65 " />
			<path d="M12.35,-15.85 L9.8,-15.85 " />
			<path d="M-12.35,-15.85 L-9.8,-15.85 " />
			<path d="M-12.35,-13.65 L-9.8,-13.65 " />
			<path d="M9.499999999999998,-27.25 L9.499999999999998,-31.5 " />
			<path d="M-7.000000000000002,-27.25 L-7.000000000000002,-31.5 " />
			<path d="M12.35,1.25 L12.750000200000002,1.25 " />
			<path d="M12.35,-1.25 L12.750000200000002,-1.25 " />
			<path d="M12.35,1.25 L0.0,1.25 " />
			<path d="M12.35,-1.25 L9.8,-1.25 " />
			<path d="M-12.75,-1.25 L-12.350000000000001,-1.25 " />
			<path d="M-12.75,1.25 L-12.350000000000001,1.25 " />
			<path d="M0.0,-1.25 L9.8,-1.25 " />
			<path d="M-12.350000000000001,-1.25 L-9.8,-1.25 " />
			<path d="M-12.350000000000001,1.25 L0.0,1.25 " />
			<path d="M-9.8,-1.25 L0.0,-1.25 " />

       </g>

       <!-- solid lines -->
       <g  stroke="rgb(0,0,0)" fill="none">
			<path d="M12.349999999999998,3.5000000000000013 L12.349999999999998,3.481136629679729 L12.349999999999998,3.4247837365454723 L12.349999999999998,3.331649990925104 L12.349999999999998,3.202906603707259 L12.349999999999998,3.0401725976848537 L12.349999999999998,2.8454944474040906 L12.349999999999998,2.6213203435596446 L12.349999999999998,2.3704694055762023 L12.349999999999998,2.0960962295460113 L12.349999999999998,1.8016512173526762 L12.349999999999998,1.490837185865503 L12.349999999999998,1.167562801868945 L12.349999999999998,0.8358934283099254 L12.349999999999998,0.5000000000000085 " />
			<path d="M12.349999999999998,-27.25 L12.349999999999998,0.5 " />
			<path d="M12.349999999999998,3.5000000000000013 L-12.350000000000001,3.5000000000000013 " />
			<path d="M-12.350000000000001,3.5000000000000013 L-12.350000000000001,3.481136629679729 L-12.350000000000001,3.4247837365454723 L-12.350000000000001,3.331649990925104 L-12.350000000000001,3.202906603707259 L-12.350000000000001,3.0401725976848537 L-12.350000000000001,2.8454944474040906 L-12.350000000000001,2.6213203435596446 L-12.350000000000001,2.3704694055762023 L-12.350000000000001,2.0960962295460113 L-12.350000000000001,1.8016512173526762 L-12.350000000000001,1.490837185865503 L-12.350000000000001,1.167562801868945 L-12.350000000000001,0.8358934283099254 L-12.350000000000001,0.5000000000000085 " />
			<path d="M-12.350000000000001,-27.25 L-12.350000000000001,0.5 " />
			<path d="M12.349999999999998,-27.25 L8.249999999999966,-27.25 " />
			<path d="M8.249999999999966,-27.25 L-8.250000031000948,-27.25 " />
			<path d="M-8.250000031000948,-27.25 L-12.350000000000001,-27.25 " />
			<path d="M9.799999999999999,1.2212453270876722e-15 L-9.800000000000002,1.2212453270876722e-15 " />
			<path d="M-9.800000000000002,0.0 L-9.800000000000002,-25.25 " />
			<path d="M9.799999999999999,-25.25 L-9.800000000000002,-25.25 " />
			<path d="M9.799999999999999,0.0 L9.799999999999999,-25.25 " />
			<path d="M12.45,3.885780586188048e-16 L12.45,0.3918756663615779 L12.45,0.7788232688471007 L12.45,1.1559767168430852 L12.45,1.518593086911454 L12.45,1.8621122678036783 L12.45,2.1822143065055677 L12.45,2.4748737341529163 L12.45,2.736410188638105 L12.45,2.9635346972989947 L12.45,3.153391037658467 L12.45,3.3035916560792864 L12.45,3.4122476926363827 L12.45,3.477992734626349 L12.45,3.4999999999999996 " />
			<path d="M12.45,-3.5 L12.45,-3.477992734626349 L12.45,-3.4122476926363827 L12.45,-3.3035916560792864 L12.45,-3.1533910376584675 L12.45,-2.9635346972989947 L12.45,-2.736410188638104 L12.45,-2.4748737341529163 L12.45,-2.1822143065055677 L12.45,-1.8621122678036786 L12.45,-1.5185930869114537 L12.45,-1.1559767168430852 L12.45,-0.778823268847101 L12.45,-0.39187566636157795 L12.45,-3.141931159689193e-14 " />
			<path d="M4.749999999999998,-31.5 L4.8377523073636155,-31.5 L5.096608962341531,-31.5 L5.513589811361893,-31.5 L6.0677856934944305,-31.5 L6.731406913088545,-31.5 L7.471176731152898,-31.5 L8.249999999999998,-31.5 L9.028823268847098,-31.5 L9.768593086911451,-31.5 L10.432214306505566,-31.5 L10.986410188638104,-31.5 L11.403391037658466,-31.5 L11.662247692636381,-31.5 L11.749999999999996,-31.5 " />
			<path d="M4.749999999999999,-31.5 L4.749999999999999,-27.25 " />
			<path d="M-11.750000000000002,-31.5 L-11.662247692636384,-31.5 L-11.40339103765847,-31.5 L-10.986410188638107,-31.5 L-10.43221430650557,-31.5 L-9.768593086911455,-31.5 L-9.028823268847102,-31.5 L-8.250000000000002,-31.5 L-7.471176731152902,-31.5 L-6.731406913088548,-31.5 L-6.067785693494434,-31.5 L-5.513589811361897,-31.5 L-5.096608962341534,-31.5 L-4.837752307363619,-31.5 L-4.7500000000000036,-31.5 " />
			<path d="M-11.750000000000002,-31.5 L-11.750000000000002,-27.25 " />
			<path d="M12.75,3.552713678800501e-16 L12.75,0.3582863235305855 L12.75,0.7120669886602065 L12.75,1.0568929982565352 L12.75,1.3884279651761864 L12.75,1.7025026448490774 L12.75,1.9951673659479474 L12.75,2.2627416997969525 L12.75,2.5018607438976956 L12.75,2.7095174375305096 L12.75,2.8831003772877413 L12.75,3.0204266569867766 L12.75,3.119769318981836 L12.75,3.1798790716583767 L12.75,3.1999999999999997 " />
			<path d="M12.75,-3.2 L12.75,-3.1798790716583767 L12.75,-3.119769318981836 L12.75,-3.0204266569867766 L12.75,-2.8831003772877417 L12.75,-2.7095174375305096 L12.75,-2.501860743897696 L12.75,-2.262741699796952 L12.75,-1.9951673659479476 L12.75,-1.7025026448490777 L12.75,-1.3884279651761866 L12.75,-1.056892998256535 L12.75,-0.7120669886602066 L12.75,-0.3582863235305856 L12.75,-2.8754776337791554e-14 " />
			<path d="M-12.45,3.885780586188048e-16 L-12.45,0.3918756663615779 L-12.45,0.7788232688471007 L-12.45,1.1559767168430852 L-12.45,1.518593086911454 L-12.45,1.8621122678036783 L-12.45,2.1822143065055677 L-12.45,2.4748737341529163 L-12.45,2.736410188638105 L-12.45,2.9635346972989947 L-12.45,3.153391037658467 L-12.45,3.3035916560792864 L-12.45,3.4122476926363827 L-12.45,3.477992734626349 L-12.45,3.4999999999999996 " />
			<path d="M-12.45,-3.5 L-12.45,-3.477992734626349 L-12.45,-3.4122476926363827 L-12.45,-3.3035916560792864 L-12.45,-3.1533910376584675 L-12.45,-2.9635346972989947 L-12.45,-2.736410188638104 L-12.45,-2.4748737341529163 L-12.45,-2.1822143065055677 L-12.45,-1.8621122678036786 L-12.45,-1.5185930869114537 L-12.45,-1.1559767168430852 L-12.45,-0.778823268847101 L-12.45,-0.39187566636157795 L-12.45,-3.141931159689193e-14 " />
			<path d="M3.1150301019106344e-32,-3.5 L-4.799092804734417e-17,-3.477992734626349 L-9.537834232950797e-17,-3.4122476926363827 L-1.4156631861707496e-16,-3.3035916560792864 L-1.8597401630934096e-16,-3.1533910376584675 L-2.2804298284187926e-16,-2.9635346972989947 L-2.672441765515604e-16,-2.736410188638104 L-3.0308461968242264e-16,-2.4748737341529163 L-3.3511359786698596e-16,-2.1822143065055677 L-3.629283281209334e-16,-1.8621122678036786 L-3.861790240728392e-16,-1.5185930869114537 L-4.045732947307401e-16,-1.1559767168430852 L-4.178798214685087e-16,-0.778823268847101 L-4.2593126699179083e-16,-0.39187566636157795 L-4.286263797015734e-16,-3.141931159689193e-14 " />
			<path d="M12.750000199999999,1.3877787807814457e-16 L12.750000199999999,0.13995559512913497 L12.750000199999999,0.2781511674453931 L12.750000199999999,0.412848827443959 L12.750000199999999,0.5423546738969478 L12.750000199999999,0.6650400956441708 L12.750000199999999,0.7793622523234169 L12.750000199999999,0.8838834764831844 L12.750000199999999,0.9772893530850374 L12.750000199999999,1.058405249035355 L12.750000199999999,1.126211084878024 L12.750000199999999,1.1798541628854595 L12.750000199999999,1.2186598902272796 L12.750000199999999,1.2421402623665532 L12.750000199999999,1.2499999999999998 " />
			<path d="M12.750000199999999,-1.25 L12.750000199999999,-1.2421402623665532 L12.750000199999999,-1.2186598902272796 L12.750000199999999,-1.1798541628854595 L12.750000199999999,-1.126211084878024 L12.750000199999999,-1.0584052490353553 L12.750000199999999,-0.9772893530850373 L12.750000199999999,-0.8838834764831845 L12.750000199999999,-0.779362252323417 L12.750000199999999,-0.6650400956441709 L12.750000199999999,-0.5423546738969478 L12.750000199999999,-0.412848827443959 L12.750000199999999,-0.2781511674453932 L12.750000199999999,-0.13995559512913497 L12.750000199999999,-1.124100812432971e-14 " />
			<path d="M-12.75,3.552713678800501e-16 L-12.75,0.3582863235305854 L-12.75,0.7120669886602063 L-12.75,1.056892998256535 L-12.75,1.3884279651761862 L-12.75,1.702502644849077 L-12.75,1.9951673659479472 L-12.75,2.2627416997969525 L-12.75,2.501860743897695 L-12.75,2.709517437530509 L-12.75,2.8831003772877413 L-12.75,3.020426656986776 L-12.75,3.1197693189818354 L-12.75,3.1798790716583767 L-12.75,3.1999999999999997 " />
			<path d="M-12.75,-3.2 L-12.75,-3.1798790716583767 L-12.75,-3.119769318981836 L-12.75,-3.0204266569867766 L-12.75,-2.8831003772877417 L-12.75,-2.7095174375305096 L-12.75,-2.501860743897696 L-12.75,-2.262741699796952 L-12.75,-1.9951673659479476 L-12.75,-1.7025026448490777 L-12.75,-1.3884279651761866 L-12.75,-1.056892998256535 L-12.75,-0.7120669886602066 L-12.75,-0.3582863235305856 L-12.75,-2.8754776337791554e-14 " />
			<path d="M12.349999999999998,0.5000000000000019 L-12.350000000000001,0.5000000000000019 " />
			<path d="M12.45,3.5 L12.35,3.5 " />
			<path d="M12.45,-3.5 L12.35,-3.5 " />
			<path d="M11.749999999999998,-27.25 L11.749999999999998,-31.5 " />
			<path d="M-4.750000000000002,-27.25 L-4.750000000000002,-31.5 " />
			<path d="M12.75,3.1999999999999997 L12.45,3.4999999999999996 " />
			<path d="M12.75,-3.1999999999999997 L12.45,-3.4999999999999996 " />
			<path d="M-12.45,-3.5 L-12.35,-3.5 " />
			<path d="M-12.45,3.5 L-12.35,3.5 " />
			<path d="M-9.8,-3.5 L5.473822126268817e-48,-3.5 " />
			<path d="M9.8,-3.5 L5.473822126268817e-48,-3.5 " />
			<path d="M-12.75,3.1999999999999997 L-12.45,3.4999999999999996 " />
			<path d="M-12.75,-3.1999999999999997 L-12.45,-3.4999999999999996 " />

       </g>
    </g>
    
</svg>
