ISO-10303-21;
HEADER;
FILE_DESCRIPTION(('FreeCAD Model'),'2;1');
FILE_NAME('Open CASCADE Shape Model','2026-09-29T18:58:17',('FreeCAD'),(
    'FreeCAD'),'Open CASCADE STEP processor 7.8','FreeCAD','Unknown');
FILE_SCHEMA(('AUTOMOTIVE_DESIGN { 1 0 10303 214 1 1 1 1 }'));
ENDSEC;
DATA;
#1 = APPLICATION_PROTOCOL_DEFINITION('international standard',
  'automotive_design',2000,#2);
#2 = APPLICATION_CONTEXT(
  'core data for automotive mechanical design processes');
#3 = SHAPE_DEFINITION_REPRESENTATION(#4,#10);
#4 = PRODUCT_DEFINITION_SHAPE('','',#5);
#5 = PRODUCT_DEFINITION('design','',#6,#9);
#6 = PRODUCT_DEFINITION_FORMATION('','',#7);
#7 = PRODUCT('Open CASCADE STEP translator 7.8 9',
  'Open CASCADE STEP translator 7.8 9','',(#8));
#8 = PRODUCT_CONTEXT('',#2,'mechanical');
#9 = PRODUCT_DEFINITION_CONTEXT('part definition',#2,'design');
#10 = ADVANCED_BREP_SHAPE_REPRESENTATION('',(#11,#15),#891);
#11 = AXIS2_PLACEMENT_3D('',#12,#13,#14);
#12 = CARTESIAN_POINT('',(0.,0.,0.));
#13 = DIRECTION('',(0.,0.,1.));
#14 = DIRECTION('',(1.,0.,-0.));
#15 = MANIFOLD_SOLID_BREP('',#16);
#16 = CLOSED_SHELL('',(#17,#50,#75,#148,#168,#251,#307,#365,#415,#465,
    #483,#507,#531,#567,#593,#619,#654,#671,#693,#705,#725,#741,#766,
    #786,#806,#823,#848,#873,#882));
#17 = ADVANCED_FACE('',(#18),#45,.T.);
#18 = FACE_BOUND('',#19,.F.);
#19 = EDGE_LOOP('',(#20,#30,#37,#38));
#20 = ORIENTED_EDGE('',*,*,#21,.F.);
#21 = EDGE_CURVE('',#22,#24,#26,.T.);
#22 = VERTEX_POINT('',#23);
#23 = CARTESIAN_POINT('',(-12.45,3.5,-1.240674230019E-14));
#24 = VERTEX_POINT('',#25);
#25 = CARTESIAN_POINT('',(-12.35,3.5,-1.268429805634E-14));
#26 = LINE('',#27,#28);
#27 = CARTESIAN_POINT('',(-12.75,3.5,-4.690692279041E-15));
#28 = VECTOR('',#29,1.);
#29 = DIRECTION('',(1.,-1.998401444325E-15,-3.330669073875E-16));
#30 = ORIENTED_EDGE('',*,*,#31,.F.);
#31 = EDGE_CURVE('',#22,#22,#32,.T.);
#32 = CIRCLE('',#33,3.5);
#33 = AXIS2_PLACEMENT_3D('',#34,#35,#36);
#34 = CARTESIAN_POINT('',(-12.45,1.415534356397E-14,-6.578071420904E-15)
  );
#35 = DIRECTION('',(1.,1.54074395551E-30,1.665334536938E-15));
#36 = DIRECTION('',(1.232595164408E-30,1.,-1.665334536938E-15));
#37 = ORIENTED_EDGE('',*,*,#21,.T.);
#38 = ORIENTED_EDGE('',*,*,#39,.F.);
#39 = EDGE_CURVE('',#24,#24,#40,.T.);
#40 = CIRCLE('',#41,3.5);
#41 = AXIS2_PLACEMENT_3D('',#42,#43,#44);
#42 = CARTESIAN_POINT('',(-12.35,2.476907567939E-14,4.202194148206E-15)
  );
#43 = DIRECTION('',(-1.,-8.881784197001E-16,-2.553512956638E-15));
#44 = DIRECTION('',(-8.881784197001E-16,1.,-2.553512956638E-15));
#45 = CYLINDRICAL_SURFACE('',#46,3.5);
#46 = AXIS2_PLACEMENT_3D('',#47,#48,#49);
#47 = CARTESIAN_POINT('',(-12.75,2.547961841515E-14,4.246603069191E-15)
  );
#48 = DIRECTION('',(-1.,1.7763568394E-15,1.110223024625E-16));
#49 = DIRECTION('',(-8.881784197001E-16,1.,-2.553512956638E-15));
#50 = ADVANCED_FACE('',(#51),#70,.T.);
#51 = FACE_BOUND('',#52,.F.);
#52 = EDGE_LOOP('',(#53,#61,#62,#63));
#53 = ORIENTED_EDGE('',*,*,#54,.F.);
#54 = EDGE_CURVE('',#22,#55,#57,.T.);
#55 = VERTEX_POINT('',#56);
#56 = CARTESIAN_POINT('',(-12.75,3.2,-1.240674230019E-14));
#57 = LINE('',#58,#59);
#58 = CARTESIAN_POINT('',(-12.45,3.5,-1.240674230019E-14));
#59 = VECTOR('',#60,1.);
#60 = DIRECTION('',(-0.707106781187,-0.707106781187,-4.449668543512E-30)
  );
#61 = ORIENTED_EDGE('',*,*,#31,.T.);
#62 = ORIENTED_EDGE('',*,*,#54,.T.);
#63 = ORIENTED_EDGE('',*,*,#64,.F.);
#64 = EDGE_CURVE('',#55,#55,#65,.T.);
#65 = CIRCLE('',#66,3.2);
#66 = AXIS2_PLACEMENT_3D('',#67,#68,#69);
#67 = CARTESIAN_POINT('',(-12.75,1.415534356397E-14,-7.077671781985E-15)
  );
#68 = DIRECTION('',(1.,1.54074395551E-30,1.665334536938E-15));
#69 = DIRECTION('',(1.232595164408E-30,1.,-1.665334536938E-15));
#70 = CONICAL_SURFACE('',#71,3.5,0.785398163397);
#71 = AXIS2_PLACEMENT_3D('',#72,#73,#74);
#72 = CARTESIAN_POINT('',(-12.45,1.415534356397E-14,-6.578071420904E-15)
  );
#73 = DIRECTION('',(1.,1.54074395551E-30,1.665334536938E-15));
#74 = DIRECTION('',(1.232595164408E-30,1.,-1.665334536938E-15));
#75 = ADVANCED_FACE('',(#76,#129,#140),#143,.F.);
#76 = FACE_BOUND('',#77,.F.);
#77 = EDGE_LOOP('',(#78,#88,#96,#105,#114,#123));
#78 = ORIENTED_EDGE('',*,*,#79,.T.);
#79 = EDGE_CURVE('',#80,#82,#84,.T.);
#80 = VERTEX_POINT('',#81);
#81 = CARTESIAN_POINT('',(-12.35,-9.,-27.25));
#82 = VERTEX_POINT('',#83);
#83 = CARTESIAN_POINT('',(-12.35,7.5,-27.25));
#84 = LINE('',#85,#86);
#85 = CARTESIAN_POINT('',(-12.35,-9.,-27.25));
#86 = VECTOR('',#87,1.);
#87 = DIRECTION('',(-1.554312234475E-15,1.,-3.885780586188E-15));
#88 = ORIENTED_EDGE('',*,*,#89,.T.);
#89 = EDGE_CURVE('',#82,#90,#92,.T.);
#90 = VERTEX_POINT('',#91);
#91 = CARTESIAN_POINT('',(-12.35,7.5,-16.));
#92 = LINE('',#93,#94);
#93 = CARTESIAN_POINT('',(-12.35,7.5,-27.25));
#94 = VECTOR('',#95,1.);
#95 = DIRECTION('',(-3.885780586188E-15,-7.771561172376E-16,1.));
#96 = ORIENTED_EDGE('',*,*,#97,.T.);
#97 = EDGE_CURVE('',#90,#98,#100,.T.);
#98 = VERTEX_POINT('',#99);
#99 = CARTESIAN_POINT('',(-12.35,3.414208906522,1.668285809633));
#100 = CIRCLE('',#101,40.244594594595);
#101 = AXIS2_PLACEMENT_3D('',#102,#103,#104);
#102 = CARTESIAN_POINT('',(-12.35,-32.74459459459,-16.));
#103 = DIRECTION('',(1.,1.554312234475E-15,3.885780586188E-15));
#104 = DIRECTION('',(-1.554312234475E-15,1.,-3.885780586188E-15));
#105 = ORIENTED_EDGE('',*,*,#106,.T.);
#106 = EDGE_CURVE('',#98,#107,#109,.T.);
#107 = VERTEX_POINT('',#108);
#108 = CARTESIAN_POINT('',(-12.35,-3.073940079141,2.234030525721));
#109 = CIRCLE('',#110,3.8);
#110 = AXIS2_PLACEMENT_3D('',#111,#112,#113);
#111 = CARTESIAN_POINT('',(-12.35,1.919575609577E-14,4.796163466381E-14)
  );
#112 = DIRECTION('',(1.,1.554312234475E-15,3.885780586188E-15));
#113 = DIRECTION('',(-1.554312234475E-15,1.,-3.885780586188E-15));
#114 = ORIENTED_EDGE('',*,*,#115,.T.);
#115 = EDGE_CURVE('',#107,#116,#118,.T.);
#116 = VERTEX_POINT('',#117);
#117 = CARTESIAN_POINT('',(-12.35,-9.,-16.));
#118 = CIRCLE('',#119,31.015384615385);
#119 = AXIS2_PLACEMENT_3D('',#120,#121,#122);
#120 = CARTESIAN_POINT('',(-12.35,22.015384615385,-16.));
#121 = DIRECTION('',(1.,1.554312234475E-15,3.885780586188E-15));
#122 = DIRECTION('',(-1.554312234475E-15,1.,-3.885780586188E-15));
#123 = ORIENTED_EDGE('',*,*,#124,.T.);
#124 = EDGE_CURVE('',#116,#80,#125,.T.);
#125 = LINE('',#126,#127);
#126 = CARTESIAN_POINT('',(-12.35,-9.,-16.));
#127 = VECTOR('',#128,1.);
#128 = DIRECTION('',(3.885780586188E-15,7.771561172376E-16,-1.));
#129 = FACE_BOUND('',#130,.F.);
#130 = EDGE_LOOP('',(#131));
#131 = ORIENTED_EDGE('',*,*,#132,.F.);
#132 = EDGE_CURVE('',#133,#133,#135,.T.);
#133 = VERTEX_POINT('',#134);
#134 = CARTESIAN_POINT('',(-12.35,3.6,-14.75));
#135 = CIRCLE('',#136,1.1);
#136 = AXIS2_PLACEMENT_3D('',#137,#138,#139);
#137 = CARTESIAN_POINT('',(-12.35,2.5,-14.75));
#138 = DIRECTION('',(1.,2.22044604925E-16,8.881784197001E-16));
#139 = DIRECTION('',(-2.22044604925E-16,1.,-8.881784197001E-16));
#140 = FACE_BOUND('',#141,.F.);
#141 = EDGE_LOOP('',(#142));
#142 = ORIENTED_EDGE('',*,*,#39,.T.);
#143 = PLANE('',#144);
#144 = AXIS2_PLACEMENT_3D('',#145,#146,#147);
#145 = CARTESIAN_POINT('',(-12.35,-0.600528663392,-13.86134107196));
#146 = DIRECTION('',(1.,-3.10862446895E-15,-7.771561172376E-16));
#147 = DIRECTION('',(-3.885780586188E-15,-7.771561172376E-16,1.));
#148 = ADVANCED_FACE('',(#149,#152),#163,.F.);
#149 = FACE_BOUND('',#150,.F.);
#150 = EDGE_LOOP('',(#151));
#151 = ORIENTED_EDGE('',*,*,#64,.T.);
#152 = FACE_BOUND('',#153,.F.);
#153 = EDGE_LOOP('',(#154));
#154 = ORIENTED_EDGE('',*,*,#155,.F.);
#155 = EDGE_CURVE('',#156,#156,#158,.T.);
#156 = VERTEX_POINT('',#157);
#157 = CARTESIAN_POINT('',(-12.75,1.25,-4.969098403213E-15));
#158 = CIRCLE('',#159,1.25);
#159 = AXIS2_PLACEMENT_3D('',#160,#161,#162);
#160 = CARTESIAN_POINT('',(-12.75,-1.100091184234E-30,
    -4.246603069191E-15));
#161 = DIRECTION('',(1.,8.628166150855E-32,3.330669073875E-16));
#162 = DIRECTION('',(2.465190328816E-32,1.,-3.330669073875E-16));
#163 = PLANE('',#164);
#164 = AXIS2_PLACEMENT_3D('',#165,#166,#167);
#165 = CARTESIAN_POINT('',(-12.75,1.405766926879E-14,3.552713678801E-14)
  );
#166 = DIRECTION('',(1.,-2.22044604925E-15,-5.551115123126E-16));
#167 = DIRECTION('',(-2.775557561563E-15,-5.551115123126E-16,1.));
#168 = ADVANCED_FACE('',(#169,#210,#228),#246,.F.);
#169 = FACE_BOUND('',#170,.F.);
#170 = EDGE_LOOP('',(#171,#172,#180,#188,#196,#204));
#171 = ORIENTED_EDGE('',*,*,#79,.F.);
#172 = ORIENTED_EDGE('',*,*,#173,.T.);
#173 = EDGE_CURVE('',#80,#174,#176,.T.);
#174 = VERTEX_POINT('',#175);
#175 = CARTESIAN_POINT('',(12.35,-9.,-27.25));
#176 = LINE('',#177,#178);
#177 = CARTESIAN_POINT('',(-12.35,-9.,-27.25));
#178 = VECTOR('',#179,1.);
#179 = DIRECTION('',(1.,-2.886579864025E-15,-5.551115123126E-16));
#180 = ORIENTED_EDGE('',*,*,#181,.T.);
#181 = EDGE_CURVE('',#174,#182,#184,.T.);
#182 = VERTEX_POINT('',#183);
#183 = CARTESIAN_POINT('',(12.35,7.5,-27.25));
#184 = LINE('',#185,#186);
#185 = CARTESIAN_POINT('',(12.35,-9.,-27.25));
#186 = VECTOR('',#187,1.);
#187 = DIRECTION('',(-1.554312234475E-15,1.,-3.885780586188E-15));
#188 = ORIENTED_EDGE('',*,*,#189,.F.);
#189 = EDGE_CURVE('',#190,#182,#192,.T.);
#190 = VERTEX_POINT('',#191);
#191 = CARTESIAN_POINT('',(8.250000006666,7.5,-27.25));
#192 = LINE('',#193,#194);
#193 = CARTESIAN_POINT('',(-12.35,7.5,-27.25));
#194 = VECTOR('',#195,1.);
#195 = DIRECTION('',(1.,-2.886579864025E-15,-5.551115123126E-16));
#196 = ORIENTED_EDGE('',*,*,#197,.F.);
#197 = EDGE_CURVE('',#198,#190,#200,.T.);
#198 = VERTEX_POINT('',#199);
#199 = CARTESIAN_POINT('',(-8.25,7.5,-27.25));
#200 = LINE('',#201,#202);
#201 = CARTESIAN_POINT('',(-12.35,7.5,-27.25));
#202 = VECTOR('',#203,1.);
#203 = DIRECTION('',(1.,-2.886579864025E-15,-5.551115123126E-16));
#204 = ORIENTED_EDGE('',*,*,#205,.F.);
#205 = EDGE_CURVE('',#82,#198,#206,.T.);
#206 = LINE('',#207,#208);
#207 = CARTESIAN_POINT('',(-12.35,7.5,-27.25));
#208 = VECTOR('',#209,1.);
#209 = DIRECTION('',(1.,-2.886579864025E-15,-5.551115123126E-16));
#210 = FACE_BOUND('',#211,.F.);
#211 = EDGE_LOOP('',(#212,#221));
#212 = ORIENTED_EDGE('',*,*,#213,.F.);
#213 = EDGE_CURVE('',#190,#214,#216,.T.);
#214 = VERTEX_POINT('',#215);
#215 = CARTESIAN_POINT('',(11.75,4.,-27.25));
#216 = CIRCLE('',#217,3.5);
#217 = AXIS2_PLACEMENT_3D('',#218,#219,#220);
#218 = CARTESIAN_POINT('',(8.25,4.,-27.25));
#219 = DIRECTION('',(4.440892098501E-16,2.22044604925E-15,1.));
#220 = DIRECTION('',(1.,-1.7763568394E-15,-4.440892098501E-16));
#221 = ORIENTED_EDGE('',*,*,#222,.F.);
#222 = EDGE_CURVE('',#214,#190,#223,.T.);
#223 = CIRCLE('',#224,3.5);
#224 = AXIS2_PLACEMENT_3D('',#225,#226,#227);
#225 = CARTESIAN_POINT('',(8.25,4.,-27.25));
#226 = DIRECTION('',(4.440892098501E-16,2.22044604925E-15,1.));
#227 = DIRECTION('',(1.,-1.7763568394E-15,-4.440892098501E-16));
#228 = FACE_BOUND('',#229,.F.);
#229 = EDGE_LOOP('',(#230,#239));
#230 = ORIENTED_EDGE('',*,*,#231,.F.);
#231 = EDGE_CURVE('',#198,#232,#234,.T.);
#232 = VERTEX_POINT('',#233);
#233 = CARTESIAN_POINT('',(-4.75,4.,-27.25));
#234 = CIRCLE('',#235,3.5);
#235 = AXIS2_PLACEMENT_3D('',#236,#237,#238);
#236 = CARTESIAN_POINT('',(-8.25,4.,-27.25));
#237 = DIRECTION('',(4.440892098501E-16,2.22044604925E-15,1.));
#238 = DIRECTION('',(1.,-1.7763568394E-15,-4.440892098501E-16));
#239 = ORIENTED_EDGE('',*,*,#240,.F.);
#240 = EDGE_CURVE('',#232,#198,#241,.T.);
#241 = CIRCLE('',#242,3.5);
#242 = AXIS2_PLACEMENT_3D('',#243,#244,#245);
#243 = CARTESIAN_POINT('',(-8.25,4.,-27.25));
#244 = DIRECTION('',(4.440892098501E-16,2.22044604925E-15,1.));
#245 = DIRECTION('',(1.,-1.7763568394E-15,-4.440892098501E-16));
#246 = PLANE('',#247);
#247 = AXIS2_PLACEMENT_3D('',#248,#249,#250);
#248 = CARTESIAN_POINT('',(-12.35,-9.,-27.25));
#249 = DIRECTION('',(-3.441691376338E-15,-3.330669073875E-16,1.));
#250 = DIRECTION('',(-1.33226762955E-15,1.,-3.663735981263E-15));
#251 = ADVANCED_FACE('',(#252),#302,.F.);
#252 = FACE_BOUND('',#253,.F.);
#253 = EDGE_LOOP('',(#254,#255,#263,#271,#279,#287,#295,#301));
#254 = ORIENTED_EDGE('',*,*,#124,.F.);
#255 = ORIENTED_EDGE('',*,*,#256,.T.);
#256 = EDGE_CURVE('',#116,#257,#259,.T.);
#257 = VERTEX_POINT('',#258);
#258 = CARTESIAN_POINT('',(-9.5,-9.,-16.));
#259 = LINE('',#260,#261);
#260 = CARTESIAN_POINT('',(-12.35,-9.,-16.));
#261 = VECTOR('',#262,1.);
#262 = DIRECTION('',(1.,-2.886579864025E-15,-5.551115123126E-16));
#263 = ORIENTED_EDGE('',*,*,#264,.F.);
#264 = EDGE_CURVE('',#265,#257,#267,.T.);
#265 = VERTEX_POINT('',#266);
#266 = CARTESIAN_POINT('',(-9.5,-9.,-25.25));
#267 = LINE('',#268,#269);
#268 = CARTESIAN_POINT('',(-9.5,-9.,-15.375));
#269 = VECTOR('',#270,1.);
#270 = DIRECTION('',(-2.886579864025E-15,-1.110223024625E-16,1.));
#271 = ORIENTED_EDGE('',*,*,#272,.F.);
#272 = EDGE_CURVE('',#273,#265,#275,.T.);
#273 = VERTEX_POINT('',#274);
#274 = CARTESIAN_POINT('',(9.5,-9.,-25.25));
#275 = LINE('',#276,#277);
#276 = CARTESIAN_POINT('',(-6.175,-9.,-25.25));
#277 = VECTOR('',#278,1.);
#278 = DIRECTION('',(-1.,2.442490654175E-15,4.440892098501E-16));
#279 = ORIENTED_EDGE('',*,*,#280,.F.);
#280 = EDGE_CURVE('',#281,#273,#283,.T.);
#281 = VERTEX_POINT('',#282);
#282 = CARTESIAN_POINT('',(9.5,-9.,-16.));
#283 = LINE('',#284,#285);
#284 = CARTESIAN_POINT('',(9.5,-9.,-15.375));
#285 = VECTOR('',#286,1.);
#286 = DIRECTION('',(2.886579864025E-15,1.110223024625E-16,-1.));
#287 = ORIENTED_EDGE('',*,*,#288,.T.);
#288 = EDGE_CURVE('',#281,#289,#291,.T.);
#289 = VERTEX_POINT('',#290);
#290 = CARTESIAN_POINT('',(12.35,-9.,-16.));
#291 = LINE('',#292,#293);
#292 = CARTESIAN_POINT('',(-12.35,-9.,-16.));
#293 = VECTOR('',#294,1.);
#294 = DIRECTION('',(1.,-2.886579864025E-15,-5.551115123126E-16));
#295 = ORIENTED_EDGE('',*,*,#296,.T.);
#296 = EDGE_CURVE('',#289,#174,#297,.T.);
#297 = LINE('',#298,#299);
#298 = CARTESIAN_POINT('',(12.35,-9.,-16.));
#299 = VECTOR('',#300,1.);
#300 = DIRECTION('',(3.885780586188E-15,7.771561172376E-16,-1.));
#301 = ORIENTED_EDGE('',*,*,#173,.F.);
#302 = PLANE('',#303);
#303 = AXIS2_PLACEMENT_3D('',#304,#305,#306);
#304 = CARTESIAN_POINT('',(-12.35,-9.,-16.));
#305 = DIRECTION('',(-1.110223024625E-15,1.,-3.441691376338E-15));
#306 = DIRECTION('',(3.663735981263E-15,5.551115123126E-16,-1.));
#307 = ADVANCED_FACE('',(#308),#360,.F.);
#308 = FACE_BOUND('',#309,.F.);
#309 = EDGE_LOOP('',(#310,#311,#312,#313,#314,#322,#330,#338,#346,#354)
  );
#310 = ORIENTED_EDGE('',*,*,#89,.F.);
#311 = ORIENTED_EDGE('',*,*,#205,.T.);
#312 = ORIENTED_EDGE('',*,*,#197,.T.);
#313 = ORIENTED_EDGE('',*,*,#189,.T.);
#314 = ORIENTED_EDGE('',*,*,#315,.T.);
#315 = EDGE_CURVE('',#182,#316,#318,.T.);
#316 = VERTEX_POINT('',#317);
#317 = CARTESIAN_POINT('',(12.35,7.5,-16.));
#318 = LINE('',#319,#320);
#319 = CARTESIAN_POINT('',(12.35,7.5,-27.25));
#320 = VECTOR('',#321,1.);
#321 = DIRECTION('',(-3.885780586188E-15,-7.771561172376E-16,1.));
#322 = ORIENTED_EDGE('',*,*,#323,.F.);
#323 = EDGE_CURVE('',#324,#316,#326,.T.);
#324 = VERTEX_POINT('',#325);
#325 = CARTESIAN_POINT('',(9.5,7.5,-16.));
#326 = LINE('',#327,#328);
#327 = CARTESIAN_POINT('',(-12.35,7.5,-16.));
#328 = VECTOR('',#329,1.);
#329 = DIRECTION('',(1.,-2.886579864025E-15,-5.551115123126E-16));
#330 = ORIENTED_EDGE('',*,*,#331,.F.);
#331 = EDGE_CURVE('',#332,#324,#334,.T.);
#332 = VERTEX_POINT('',#333);
#333 = CARTESIAN_POINT('',(9.5,7.5,-25.25));
#334 = LINE('',#335,#336);
#335 = CARTESIAN_POINT('',(9.5,7.5,-21.));
#336 = VECTOR('',#337,1.);
#337 = DIRECTION('',(-2.886579864025E-15,-1.110223024625E-16,1.));
#338 = ORIENTED_EDGE('',*,*,#339,.F.);
#339 = EDGE_CURVE('',#340,#332,#342,.T.);
#340 = VERTEX_POINT('',#341);
#341 = CARTESIAN_POINT('',(-9.5,7.5,-25.25));
#342 = LINE('',#343,#344);
#343 = CARTESIAN_POINT('',(-6.175,7.5,-25.25));
#344 = VECTOR('',#345,1.);
#345 = DIRECTION('',(1.,-2.442490654175E-15,-4.440892098501E-16));
#346 = ORIENTED_EDGE('',*,*,#347,.F.);
#347 = EDGE_CURVE('',#348,#340,#350,.T.);
#348 = VERTEX_POINT('',#349);
#349 = CARTESIAN_POINT('',(-9.5,7.5,-16.));
#350 = LINE('',#351,#352);
#351 = CARTESIAN_POINT('',(-9.5,7.5,-21.));
#352 = VECTOR('',#353,1.);
#353 = DIRECTION('',(2.886579864025E-15,1.110223024625E-16,-1.));
#354 = ORIENTED_EDGE('',*,*,#355,.F.);
#355 = EDGE_CURVE('',#90,#348,#356,.T.);
#356 = LINE('',#357,#358);
#357 = CARTESIAN_POINT('',(-12.35,7.5,-16.));
#358 = VECTOR('',#359,1.);
#359 = DIRECTION('',(1.,-2.886579864025E-15,-5.551115123126E-16));
#360 = PLANE('',#361);
#361 = AXIS2_PLACEMENT_3D('',#362,#363,#364);
#362 = CARTESIAN_POINT('',(-12.35,7.5,-27.25));
#363 = DIRECTION('',(1.110223024625E-15,-1.,3.441691376338E-15));
#364 = DIRECTION('',(-3.663735981263E-15,-5.551115123126E-16,1.));
#365 = ADVANCED_FACE('',(#366),#410,.T.);
#366 = FACE_BOUND('',#367,.F.);
#367 = EDGE_LOOP('',(#368,#369,#377,#384,#385,#394,#402,#409));
#368 = ORIENTED_EDGE('',*,*,#115,.F.);
#369 = ORIENTED_EDGE('',*,*,#370,.T.);
#370 = EDGE_CURVE('',#107,#371,#373,.T.);
#371 = VERTEX_POINT('',#372);
#372 = CARTESIAN_POINT('',(12.35,-3.073940079141,2.234030525721));
#373 = LINE('',#374,#375);
#374 = CARTESIAN_POINT('',(-12.35,-3.073940079141,2.234030525721));
#375 = VECTOR('',#376,1.);
#376 = DIRECTION('',(1.,-2.886579864025E-15,-5.551115123126E-16));
#377 = ORIENTED_EDGE('',*,*,#378,.T.);
#378 = EDGE_CURVE('',#371,#289,#379,.T.);
#379 = CIRCLE('',#380,31.015384615385);
#380 = AXIS2_PLACEMENT_3D('',#381,#382,#383);
#381 = CARTESIAN_POINT('',(12.35,22.015384615385,-16.));
#382 = DIRECTION('',(1.,1.554312234475E-15,3.885780586188E-15));
#383 = DIRECTION('',(-1.554312234475E-15,1.,-3.885780586188E-15));
#384 = ORIENTED_EDGE('',*,*,#288,.F.);
#385 = ORIENTED_EDGE('',*,*,#386,.T.);
#386 = EDGE_CURVE('',#281,#387,#389,.T.);
#387 = VERTEX_POINT('',#388);
#388 = CARTESIAN_POINT('',(9.5,-6.688127065945,-4.25));
#389 = CIRCLE('',#390,31.015384615385);
#390 = AXIS2_PLACEMENT_3D('',#391,#392,#393);
#391 = CARTESIAN_POINT('',(9.5,22.015384615385,-16.));
#392 = DIRECTION('',(-1.,-8.881784197001E-16,-3.219646771413E-15));
#393 = DIRECTION('',(-8.881784197001E-16,1.,-3.441691376338E-15));
#394 = ORIENTED_EDGE('',*,*,#395,.T.);
#395 = EDGE_CURVE('',#387,#396,#398,.T.);
#396 = VERTEX_POINT('',#397);
#397 = CARTESIAN_POINT('',(-9.5,-6.688127065945,-4.25));
#398 = LINE('',#399,#400);
#399 = CARTESIAN_POINT('',(-12.35,-6.688127065945,-4.25));
#400 = VECTOR('',#401,1.);
#401 = DIRECTION('',(-1.,2.442490654175E-15,1.110223024625E-16));
#402 = ORIENTED_EDGE('',*,*,#403,.F.);
#403 = EDGE_CURVE('',#257,#396,#404,.T.);
#404 = CIRCLE('',#405,31.015384615385);
#405 = AXIS2_PLACEMENT_3D('',#406,#407,#408);
#406 = CARTESIAN_POINT('',(-9.5,22.015384615385,-16.));
#407 = DIRECTION('',(-1.,-8.881784197001E-16,-3.219646771413E-15));
#408 = DIRECTION('',(-8.881784197001E-16,1.,-3.441691376338E-15));
#409 = ORIENTED_EDGE('',*,*,#256,.F.);
#410 = CYLINDRICAL_SURFACE('',#411,31.015384615385);
#411 = AXIS2_PLACEMENT_3D('',#412,#413,#414);
#412 = CARTESIAN_POINT('',(-12.35,22.015384615385,-16.));
#413 = DIRECTION('',(-1.,2.6645352591E-15,3.330669073875E-16));
#414 = DIRECTION('',(-1.33226762955E-15,1.,-3.663735981263E-15));
#415 = ADVANCED_FACE('',(#416),#460,.T.);
#416 = FACE_BOUND('',#417,.F.);
#417 = EDGE_LOOP('',(#418,#419,#420,#429,#437,#444,#445,#454));
#418 = ORIENTED_EDGE('',*,*,#97,.F.);
#419 = ORIENTED_EDGE('',*,*,#355,.T.);
#420 = ORIENTED_EDGE('',*,*,#421,.F.);
#421 = EDGE_CURVE('',#422,#348,#424,.T.);
#422 = VERTEX_POINT('',#423);
#423 = CARTESIAN_POINT('',(-9.5,5.746506897611,-4.25));
#424 = CIRCLE('',#425,40.244594594595);
#425 = AXIS2_PLACEMENT_3D('',#426,#427,#428);
#426 = CARTESIAN_POINT('',(-9.5,-32.74459459459,-16.));
#427 = DIRECTION('',(-1.,-8.881784197001E-16,-3.219646771413E-15));
#428 = DIRECTION('',(-8.881784197001E-16,1.,-3.441691376338E-15));
#429 = ORIENTED_EDGE('',*,*,#430,.F.);
#430 = EDGE_CURVE('',#431,#422,#433,.T.);
#431 = VERTEX_POINT('',#432);
#432 = CARTESIAN_POINT('',(9.5,5.746506897611,-4.25));
#433 = LINE('',#434,#435);
#434 = CARTESIAN_POINT('',(-12.35,5.746506897611,-4.25));
#435 = VECTOR('',#436,1.);
#436 = DIRECTION('',(-1.,2.442490654175E-15,1.110223024625E-16));
#437 = ORIENTED_EDGE('',*,*,#438,.T.);
#438 = EDGE_CURVE('',#431,#324,#439,.T.);
#439 = CIRCLE('',#440,40.244594594595);
#440 = AXIS2_PLACEMENT_3D('',#441,#442,#443);
#441 = CARTESIAN_POINT('',(9.5,-32.74459459459,-16.));
#442 = DIRECTION('',(-1.,-8.881784197001E-16,-3.219646771413E-15));
#443 = DIRECTION('',(-8.881784197001E-16,1.,-3.441691376338E-15));
#444 = ORIENTED_EDGE('',*,*,#323,.T.);
#445 = ORIENTED_EDGE('',*,*,#446,.T.);
#446 = EDGE_CURVE('',#316,#447,#449,.T.);
#447 = VERTEX_POINT('',#448);
#448 = CARTESIAN_POINT('',(12.35,3.414208906522,1.668285809633));
#449 = CIRCLE('',#450,40.244594594595);
#450 = AXIS2_PLACEMENT_3D('',#451,#452,#453);
#451 = CARTESIAN_POINT('',(12.35,-32.74459459459,-16.));
#452 = DIRECTION('',(1.,1.554312234475E-15,3.885780586188E-15));
#453 = DIRECTION('',(-1.554312234475E-15,1.,-3.885780586188E-15));
#454 = ORIENTED_EDGE('',*,*,#455,.F.);
#455 = EDGE_CURVE('',#98,#447,#456,.T.);
#456 = LINE('',#457,#458);
#457 = CARTESIAN_POINT('',(-12.35,3.414208906522,1.668285809633));
#458 = VECTOR('',#459,1.);
#459 = DIRECTION('',(1.,-2.886579864025E-15,-5.551115123126E-16));
#460 = CYLINDRICAL_SURFACE('',#461,40.244594594595);
#461 = AXIS2_PLACEMENT_3D('',#462,#463,#464);
#462 = CARTESIAN_POINT('',(-12.35,-32.74459459459,-16.));
#463 = DIRECTION('',(-1.,2.6645352591E-15,3.330669073875E-16));
#464 = DIRECTION('',(-1.33226762955E-15,1.,-3.663735981263E-15));
#465 = ADVANCED_FACE('',(#466),#478,.T.);
#466 = FACE_BOUND('',#467,.F.);
#467 = EDGE_LOOP('',(#468,#469,#476,#477));
#468 = ORIENTED_EDGE('',*,*,#455,.T.);
#469 = ORIENTED_EDGE('',*,*,#470,.T.);
#470 = EDGE_CURVE('',#447,#371,#471,.T.);
#471 = CIRCLE('',#472,3.8);
#472 = AXIS2_PLACEMENT_3D('',#473,#474,#475);
#473 = CARTESIAN_POINT('',(12.35,-1.919575609577E-14,-4.796163466381E-14
    ));
#474 = DIRECTION('',(1.,1.554312234475E-15,3.885780586188E-15));
#475 = DIRECTION('',(-1.554312234475E-15,1.,-3.885780586188E-15));
#476 = ORIENTED_EDGE('',*,*,#370,.F.);
#477 = ORIENTED_EDGE('',*,*,#106,.F.);
#478 = CYLINDRICAL_SURFACE('',#479,3.8);
#479 = AXIS2_PLACEMENT_3D('',#480,#481,#482);
#480 = CARTESIAN_POINT('',(-12.35,3.564926132071E-14,6.85562717706E-15)
  );
#481 = DIRECTION('',(-1.,2.6645352591E-15,3.330669073875E-16));
#482 = DIRECTION('',(-1.33226762955E-15,1.,-3.663735981263E-15));
#483 = ADVANCED_FACE('',(#484),#502,.F.);
#484 = FACE_BOUND('',#485,.F.);
#485 = EDGE_LOOP('',(#486,#495,#500,#501));
#486 = ORIENTED_EDGE('',*,*,#487,.F.);
#487 = EDGE_CURVE('',#488,#488,#490,.T.);
#488 = VERTEX_POINT('',#489);
#489 = CARTESIAN_POINT('',(-9.5,3.6,-14.75));
#490 = CIRCLE('',#491,1.1);
#491 = AXIS2_PLACEMENT_3D('',#492,#493,#494);
#492 = CARTESIAN_POINT('',(-9.5,2.5,-14.75));
#493 = DIRECTION('',(1.,2.22044604925E-16,8.881784197001E-16));
#494 = DIRECTION('',(-2.22044604925E-16,1.,-8.881784197001E-16));
#495 = ORIENTED_EDGE('',*,*,#496,.F.);
#496 = EDGE_CURVE('',#133,#488,#497,.T.);
#497 = B_SPLINE_CURVE_WITH_KNOTS('',1,(#498,#499),.UNSPECIFIED.,.F.,.F.,
  (2,2),(-94.06760673047,94.067606730479),.PIECEWISE_BEZIER_KNOTS.);
#498 = CARTESIAN_POINT('',(-94.06760673047,3.6,-14.75));
#499 = CARTESIAN_POINT('',(94.067606730479,3.6,-14.75));
#500 = ORIENTED_EDGE('',*,*,#132,.T.);
#501 = ORIENTED_EDGE('',*,*,#496,.T.);
#502 = CYLINDRICAL_SURFACE('',#503,1.1);
#503 = AXIS2_PLACEMENT_3D('',#504,#505,#506);
#504 = CARTESIAN_POINT('',(1.254552017826E-14,2.5,-14.75));
#505 = DIRECTION('',(1.,-4.440892098501E-16,2.22044604925E-16));
#506 = DIRECTION('',(-2.22044604925E-16,1.,-8.881784197001E-16));
#507 = ADVANCED_FACE('',(#508),#526,.F.);
#508 = FACE_BOUND('',#509,.F.);
#509 = EDGE_LOOP('',(#510,#519,#524,#525));
#510 = ORIENTED_EDGE('',*,*,#511,.F.);
#511 = EDGE_CURVE('',#512,#512,#514,.T.);
#512 = VERTEX_POINT('',#513);
#513 = CARTESIAN_POINT('',(12.75,1.25,3.52410773517E-15));
#514 = CIRCLE('',#515,1.25);
#515 = AXIS2_PLACEMENT_3D('',#516,#517,#518);
#516 = CARTESIAN_POINT('',(12.75,1.100091184234E-30,4.246603069191E-15)
  );
#517 = DIRECTION('',(1.,8.628166150855E-32,3.330669073875E-16));
#518 = DIRECTION('',(2.465190328816E-32,1.,-3.330669073875E-16));
#519 = ORIENTED_EDGE('',*,*,#520,.F.);
#520 = EDGE_CURVE('',#156,#512,#521,.T.);
#521 = B_SPLINE_CURVE_WITH_KNOTS('',1,(#522,#523),.UNSPECIFIED.,.F.,.F.,
  (2,2),(-94.06760673047,94.067606730479),.PIECEWISE_BEZIER_KNOTS.);
#522 = CARTESIAN_POINT('',(-94.06760673047,1.25,-3.205330219309E-14));
#523 = CARTESIAN_POINT('',(94.067606730479,1.25,3.060831152505E-14));
#524 = ORIENTED_EDGE('',*,*,#155,.T.);
#525 = ORIENTED_EDGE('',*,*,#520,.T.);
#526 = CYLINDRICAL_SURFACE('',#527,1.25);
#527 = AXIS2_PLACEMENT_3D('',#528,#529,#530);
#528 = CARTESIAN_POINT('',(0.,0.,0.));
#529 = DIRECTION('',(1.,8.628166150855E-32,3.330669073875E-16));
#530 = DIRECTION('',(2.465190328816E-32,1.,-3.330669073875E-16));
#531 = ADVANCED_FACE('',(#532,#540,#551),#562,.T.);
#532 = FACE_BOUND('',#533,.T.);
#533 = EDGE_LOOP('',(#534,#535,#536,#537,#538,#539));
#534 = ORIENTED_EDGE('',*,*,#181,.T.);
#535 = ORIENTED_EDGE('',*,*,#315,.T.);
#536 = ORIENTED_EDGE('',*,*,#446,.T.);
#537 = ORIENTED_EDGE('',*,*,#470,.T.);
#538 = ORIENTED_EDGE('',*,*,#378,.T.);
#539 = ORIENTED_EDGE('',*,*,#296,.T.);
#540 = FACE_BOUND('',#541,.T.);
#541 = EDGE_LOOP('',(#542));
#542 = ORIENTED_EDGE('',*,*,#543,.F.);
#543 = EDGE_CURVE('',#544,#544,#546,.T.);
#544 = VERTEX_POINT('',#545);
#545 = CARTESIAN_POINT('',(12.35,3.6,-14.75));
#546 = CIRCLE('',#547,1.1);
#547 = AXIS2_PLACEMENT_3D('',#548,#549,#550);
#548 = CARTESIAN_POINT('',(12.35,2.5,-14.75));
#549 = DIRECTION('',(1.,2.22044604925E-16,8.881784197001E-16));
#550 = DIRECTION('',(-2.22044604925E-16,1.,-8.881784197001E-16));
#551 = FACE_BOUND('',#552,.T.);
#552 = EDGE_LOOP('',(#553));
#553 = ORIENTED_EDGE('',*,*,#554,.T.);
#554 = EDGE_CURVE('',#555,#555,#557,.T.);
#555 = VERTEX_POINT('',#556);
#556 = CARTESIAN_POINT('',(12.35,3.5,1.026956297778E-15));
#557 = CIRCLE('',#558,3.5);
#558 = AXIS2_PLACEMENT_3D('',#559,#560,#561);
#559 = CARTESIAN_POINT('',(12.35,-1.91069382538E-14,1.459943277382E-15)
  );
#560 = DIRECTION('',(-1.,-8.881784197001E-16,-2.553512956638E-15));
#561 = DIRECTION('',(-8.881784197001E-16,1.,-2.553512956638E-15));
#562 = PLANE('',#563);
#563 = AXIS2_PLACEMENT_3D('',#564,#565,#566);
#564 = CARTESIAN_POINT('',(12.35,-0.600528663392,-13.86134107196));
#565 = DIRECTION('',(1.,-3.10862446895E-15,-7.771561172376E-16));
#566 = DIRECTION('',(-3.885780586188E-15,-7.771561172376E-16,1.));
#567 = ADVANCED_FACE('',(#568),#588,.T.);
#568 = FACE_BOUND('',#569,.F.);
#569 = EDGE_LOOP('',(#570,#579,#585,#586,#587));
#570 = ORIENTED_EDGE('',*,*,#571,.F.);
#571 = EDGE_CURVE('',#572,#572,#574,.T.);
#572 = VERTEX_POINT('',#573);
#573 = CARTESIAN_POINT('',(11.75,4.,-31.5));
#574 = CIRCLE('',#575,3.5);
#575 = AXIS2_PLACEMENT_3D('',#576,#577,#578);
#576 = CARTESIAN_POINT('',(8.25,4.,-31.5));
#577 = DIRECTION('',(4.440892098501E-16,2.22044604925E-15,1.));
#578 = DIRECTION('',(1.,-1.7763568394E-15,-4.440892098501E-16));
#579 = ORIENTED_EDGE('',*,*,#580,.T.);
#580 = EDGE_CURVE('',#572,#214,#581,.T.);
#581 = LINE('',#582,#583);
#582 = CARTESIAN_POINT('',(11.75,4.,-31.5));
#583 = VECTOR('',#584,1.);
#584 = DIRECTION('',(-1.998401444325E-15,-2.22044604925E-16,1.));
#585 = ORIENTED_EDGE('',*,*,#222,.T.);
#586 = ORIENTED_EDGE('',*,*,#213,.T.);
#587 = ORIENTED_EDGE('',*,*,#580,.F.);
#588 = CYLINDRICAL_SURFACE('',#589,3.5);
#589 = AXIS2_PLACEMENT_3D('',#590,#591,#592);
#590 = CARTESIAN_POINT('',(8.25,4.,-31.5));
#591 = DIRECTION('',(1.7763568394E-15,-1.627025617018E-30,-1.));
#592 = DIRECTION('',(1.,-1.554312234475E-15,-2.22044604925E-16));
#593 = ADVANCED_FACE('',(#594),#614,.T.);
#594 = FACE_BOUND('',#595,.F.);
#595 = EDGE_LOOP('',(#596,#605,#611,#612,#613));
#596 = ORIENTED_EDGE('',*,*,#597,.F.);
#597 = EDGE_CURVE('',#598,#598,#600,.T.);
#598 = VERTEX_POINT('',#599);
#599 = CARTESIAN_POINT('',(-4.75,4.,-31.5));
#600 = CIRCLE('',#601,3.5);
#601 = AXIS2_PLACEMENT_3D('',#602,#603,#604);
#602 = CARTESIAN_POINT('',(-8.25,4.,-31.5));
#603 = DIRECTION('',(4.440892098501E-16,2.22044604925E-15,1.));
#604 = DIRECTION('',(1.,-1.7763568394E-15,-4.440892098501E-16));
#605 = ORIENTED_EDGE('',*,*,#606,.T.);
#606 = EDGE_CURVE('',#598,#232,#607,.T.);
#607 = LINE('',#608,#609);
#608 = CARTESIAN_POINT('',(-4.75,4.,-31.5));
#609 = VECTOR('',#610,1.);
#610 = DIRECTION('',(-1.998401444325E-15,-2.22044604925E-16,1.));
#611 = ORIENTED_EDGE('',*,*,#240,.T.);
#612 = ORIENTED_EDGE('',*,*,#231,.T.);
#613 = ORIENTED_EDGE('',*,*,#606,.F.);
#614 = CYLINDRICAL_SURFACE('',#615,3.5);
#615 = AXIS2_PLACEMENT_3D('',#616,#617,#618);
#616 = CARTESIAN_POINT('',(-8.25,4.,-31.5));
#617 = DIRECTION('',(1.7763568394E-15,-1.627025617018E-30,-1.));
#618 = DIRECTION('',(1.,-1.554312234475E-15,-2.22044604925E-16));
#619 = ADVANCED_FACE('',(#620,#638),#649,.F.);
#620 = FACE_BOUND('',#621,.F.);
#621 = EDGE_LOOP('',(#622,#623,#629,#630,#631,#637));
#622 = ORIENTED_EDGE('',*,*,#280,.T.);
#623 = ORIENTED_EDGE('',*,*,#624,.T.);
#624 = EDGE_CURVE('',#273,#332,#625,.T.);
#625 = LINE('',#626,#627);
#626 = CARTESIAN_POINT('',(9.5,-1.759703494031E-14,-25.25));
#627 = VECTOR('',#628,1.);
#628 = DIRECTION('',(-1.110223024625E-15,1.,-3.330669073875E-15));
#629 = ORIENTED_EDGE('',*,*,#331,.T.);
#630 = ORIENTED_EDGE('',*,*,#438,.F.);
#631 = ORIENTED_EDGE('',*,*,#632,.F.);
#632 = EDGE_CURVE('',#387,#431,#633,.T.);
#633 = LINE('',#634,#635);
#634 = CARTESIAN_POINT('',(9.5,-2.225997164373E-14,-4.25));
#635 = VECTOR('',#636,1.);
#636 = DIRECTION('',(-1.110223024625E-15,1.,-3.330669073875E-15));
#637 = ORIENTED_EDGE('',*,*,#386,.F.);
#638 = FACE_BOUND('',#639,.F.);
#639 = EDGE_LOOP('',(#640));
#640 = ORIENTED_EDGE('',*,*,#641,.F.);
#641 = EDGE_CURVE('',#642,#642,#644,.T.);
#642 = VERTEX_POINT('',#643);
#643 = CARTESIAN_POINT('',(9.5,3.6,-14.75));
#644 = CIRCLE('',#645,1.1);
#645 = AXIS2_PLACEMENT_3D('',#646,#647,#648);
#646 = CARTESIAN_POINT('',(9.5,2.5,-14.75));
#647 = DIRECTION('',(1.,2.22044604925E-16,8.881784197001E-16));
#648 = DIRECTION('',(-2.22044604925E-16,1.,-8.881784197001E-16));
#649 = PLANE('',#650);
#650 = AXIS2_PLACEMENT_3D('',#651,#652,#653);
#651 = CARTESIAN_POINT('',(9.5,-2.272283856969E-14,-14.75));
#652 = DIRECTION('',(1.,-2.22044604925E-15,-4.440892098501E-16));
#653 = DIRECTION('',(-1.110223024625E-15,1.,-2.886579864025E-15));
#654 = ADVANCED_FACE('',(#655),#666,.F.);
#655 = FACE_BOUND('',#656,.F.);
#656 = EDGE_LOOP('',(#657,#663,#664,#665));
#657 = ORIENTED_EDGE('',*,*,#658,.F.);
#658 = EDGE_CURVE('',#340,#265,#659,.T.);
#659 = LINE('',#660,#661);
#660 = CARTESIAN_POINT('',(-9.5,1.992850329202E-14,-25.25));
#661 = VECTOR('',#662,1.);
#662 = DIRECTION('',(1.110223024625E-15,-1.,3.330669073875E-15));
#663 = ORIENTED_EDGE('',*,*,#339,.T.);
#664 = ORIENTED_EDGE('',*,*,#624,.F.);
#665 = ORIENTED_EDGE('',*,*,#272,.T.);
#666 = PLANE('',#667);
#667 = AXIS2_PLACEMENT_3D('',#668,#669,#670);
#668 = CARTESIAN_POINT('',(8.026457787794E-14,5.883042604413E-16,-25.25)
  );
#669 = DIRECTION('',(2.886579864025E-15,-3.737903743466E-17,-1.));
#670 = DIRECTION('',(1.110223024625E-15,-1.,3.36804811131E-15));
#671 = ADVANCED_FACE('',(#672,#685),#688,.F.);
#672 = FACE_BOUND('',#673,.F.);
#673 = EDGE_LOOP('',(#674,#680,#681,#682,#683,#684));
#674 = ORIENTED_EDGE('',*,*,#675,.F.);
#675 = EDGE_CURVE('',#422,#396,#676,.T.);
#676 = LINE('',#677,#678);
#677 = CARTESIAN_POINT('',(-9.5,2.459143999545E-14,-4.25));
#678 = VECTOR('',#679,1.);
#679 = DIRECTION('',(1.110223024625E-15,-1.,3.330669073875E-15));
#680 = ORIENTED_EDGE('',*,*,#421,.T.);
#681 = ORIENTED_EDGE('',*,*,#347,.T.);
#682 = ORIENTED_EDGE('',*,*,#658,.T.);
#683 = ORIENTED_EDGE('',*,*,#264,.T.);
#684 = ORIENTED_EDGE('',*,*,#403,.T.);
#685 = FACE_BOUND('',#686,.F.);
#686 = EDGE_LOOP('',(#687));
#687 = ORIENTED_EDGE('',*,*,#487,.T.);
#688 = PLANE('',#689);
#689 = AXIS2_PLACEMENT_3D('',#690,#691,#692);
#690 = CARTESIAN_POINT('',(-9.5,2.530771989971E-14,-14.75));
#691 = DIRECTION('',(-1.,2.22044604925E-15,4.440892098501E-16));
#692 = DIRECTION('',(1.110223024625E-15,-1.,2.886579864025E-15));
#693 = ADVANCED_FACE('',(#694),#700,.F.);
#694 = FACE_BOUND('',#695,.F.);
#695 = EDGE_LOOP('',(#696,#697,#698,#699));
#696 = ORIENTED_EDGE('',*,*,#395,.F.);
#697 = ORIENTED_EDGE('',*,*,#632,.T.);
#698 = ORIENTED_EDGE('',*,*,#430,.T.);
#699 = ORIENTED_EDGE('',*,*,#675,.T.);
#700 = PLANE('',#701);
#701 = AXIS2_PLACEMENT_3D('',#702,#703,#704);
#702 = CARTESIAN_POINT('',(1.610475130398E-14,-1.654270287561E-15,-4.25)
  );
#703 = DIRECTION('',(-2.886579864025E-15,3.49563254113E-17,1.));
#704 = DIRECTION('',(-1.110223024625E-15,1.,-3.365625399287E-15));
#705 = ADVANCED_FACE('',(#706,#717),#720,.T.);
#706 = FACE_BOUND('',#707,.T.);
#707 = EDGE_LOOP('',(#708));
#708 = ORIENTED_EDGE('',*,*,#709,.T.);
#709 = EDGE_CURVE('',#710,#710,#712,.T.);
#710 = VERTEX_POINT('',#711);
#711 = CARTESIAN_POINT('',(12.75,3.2,4.175231589037E-15));
#712 = CIRCLE('',#713,3.2);
#713 = AXIS2_PLACEMENT_3D('',#714,#715,#716);
#714 = CARTESIAN_POINT('',(12.75,1.415534356397E-14,3.538835890993E-14)
  );
#715 = DIRECTION('',(1.,1.54074395551E-30,1.665334536938E-15));
#716 = DIRECTION('',(1.470309946115E-29,1.,-9.754102287778E-15));
#717 = FACE_BOUND('',#718,.T.);
#718 = EDGE_LOOP('',(#719));
#719 = ORIENTED_EDGE('',*,*,#511,.F.);
#720 = PLANE('',#721);
#721 = AXIS2_PLACEMENT_3D('',#722,#723,#724);
#722 = CARTESIAN_POINT('',(12.75,-1.425301785915E-14,-3.552713678801E-14
    ));
#723 = DIRECTION('',(1.,-2.22044604925E-15,-5.551115123126E-16));
#724 = DIRECTION('',(-2.775557561563E-15,-5.551115123126E-16,1.));
#725 = ADVANCED_FACE('',(#726),#736,.F.);
#726 = FACE_BOUND('',#727,.F.);
#727 = EDGE_LOOP('',(#728,#729,#734,#735));
#728 = ORIENTED_EDGE('',*,*,#543,.F.);
#729 = ORIENTED_EDGE('',*,*,#730,.F.);
#730 = EDGE_CURVE('',#642,#544,#731,.T.);
#731 = B_SPLINE_CURVE_WITH_KNOTS('',1,(#732,#733),.UNSPECIFIED.,.F.,.F.,
  (2,2),(-94.06760673047,94.067606730479),.PIECEWISE_BEZIER_KNOTS.);
#732 = CARTESIAN_POINT('',(-94.06760673047,3.6,-14.75));
#733 = CARTESIAN_POINT('',(94.067606730479,3.6,-14.75));
#734 = ORIENTED_EDGE('',*,*,#641,.T.);
#735 = ORIENTED_EDGE('',*,*,#730,.T.);
#736 = CYLINDRICAL_SURFACE('',#737,1.1);
#737 = AXIS2_PLACEMENT_3D('',#738,#739,#740);
#738 = CARTESIAN_POINT('',(1.254552017826E-14,2.5,-14.75));
#739 = DIRECTION('',(1.,-4.440892098501E-16,2.22044604925E-16));
#740 = DIRECTION('',(-2.22044604925E-16,1.,-8.881784197001E-16));
#741 = ADVANCED_FACE('',(#742),#761,.T.);
#742 = FACE_BOUND('',#743,.F.);
#743 = EDGE_LOOP('',(#744,#752,#753,#754));
#744 = ORIENTED_EDGE('',*,*,#745,.F.);
#745 = EDGE_CURVE('',#555,#746,#748,.T.);
#746 = VERTEX_POINT('',#747);
#747 = CARTESIAN_POINT('',(12.45,3.5,7.494005416217E-16));
#748 = LINE('',#749,#750);
#749 = CARTESIAN_POINT('',(-12.75,3.5,-4.690692279041E-15));
#750 = VECTOR('',#751,1.);
#751 = DIRECTION('',(1.,-1.998401444325E-15,-3.330669073875E-16));
#752 = ORIENTED_EDGE('',*,*,#554,.T.);
#753 = ORIENTED_EDGE('',*,*,#745,.T.);
#754 = ORIENTED_EDGE('',*,*,#755,.T.);
#755 = EDGE_CURVE('',#746,#746,#756,.T.);
#756 = CIRCLE('',#757,3.5);
#757 = AXIS2_PLACEMENT_3D('',#758,#759,#760);
#758 = CARTESIAN_POINT('',(12.45,1.415534356397E-14,3.488875854885E-14)
  );
#759 = DIRECTION('',(1.,1.54074395551E-30,1.665334536938E-15));
#760 = DIRECTION('',(1.470309946115E-29,1.,-9.754102287778E-15));
#761 = CYLINDRICAL_SURFACE('',#762,3.5);
#762 = AXIS2_PLACEMENT_3D('',#763,#764,#765);
#763 = CARTESIAN_POINT('',(-12.75,2.547961841515E-14,4.246603069191E-15)
  );
#764 = DIRECTION('',(-1.,1.7763568394E-15,1.110223024625E-16));
#765 = DIRECTION('',(-8.881784197001E-16,1.,-2.553512956638E-15));
#766 = ADVANCED_FACE('',(#767,#770),#781,.F.);
#767 = FACE_BOUND('',#768,.F.);
#768 = EDGE_LOOP('',(#769));
#769 = ORIENTED_EDGE('',*,*,#571,.T.);
#770 = FACE_BOUND('',#771,.F.);
#771 = EDGE_LOOP('',(#772));
#772 = ORIENTED_EDGE('',*,*,#773,.F.);
#773 = EDGE_CURVE('',#774,#774,#776,.T.);
#774 = VERTEX_POINT('',#775);
#775 = CARTESIAN_POINT('',(9.5,4.,-31.5));
#776 = CIRCLE('',#777,1.25);
#777 = AXIS2_PLACEMENT_3D('',#778,#779,#780);
#778 = CARTESIAN_POINT('',(8.25,4.,-31.5));
#779 = DIRECTION('',(3.330669073875E-16,1.665334536938E-15,1.));
#780 = DIRECTION('',(1.,-1.33226762955E-15,-3.330669073875E-16));
#781 = PLANE('',#782);
#782 = AXIS2_PLACEMENT_3D('',#783,#784,#785);
#783 = CARTESIAN_POINT('',(6.560994251113E-14,4.,-31.5));
#784 = DIRECTION('',(-2.22044604925E-15,-4.440892098501E-16,1.));
#785 = DIRECTION('',(1.,-1.7763568394E-15,-4.440892098501E-16));
#786 = ADVANCED_FACE('',(#787,#790),#801,.F.);
#787 = FACE_BOUND('',#788,.F.);
#788 = EDGE_LOOP('',(#789));
#789 = ORIENTED_EDGE('',*,*,#597,.T.);
#790 = FACE_BOUND('',#791,.F.);
#791 = EDGE_LOOP('',(#792));
#792 = ORIENTED_EDGE('',*,*,#793,.F.);
#793 = EDGE_CURVE('',#794,#794,#796,.T.);
#794 = VERTEX_POINT('',#795);
#795 = CARTESIAN_POINT('',(-7.,4.,-31.5));
#796 = CIRCLE('',#797,1.25);
#797 = AXIS2_PLACEMENT_3D('',#798,#799,#800);
#798 = CARTESIAN_POINT('',(-8.25,4.,-31.5));
#799 = DIRECTION('',(3.330669073875E-16,1.665334536938E-15,1.));
#800 = DIRECTION('',(1.,-1.33226762955E-15,-3.330669073875E-16));
#801 = PLANE('',#802);
#802 = AXIS2_PLACEMENT_3D('',#803,#804,#805);
#803 = CARTESIAN_POINT('',(6.560994251113E-14,4.,-31.5));
#804 = DIRECTION('',(-2.22044604925E-15,-4.440892098501E-16,1.));
#805 = DIRECTION('',(1.,-1.7763568394E-15,-4.440892098501E-16));
#806 = ADVANCED_FACE('',(#807),#818,.T.);
#807 = FACE_BOUND('',#808,.T.);
#808 = EDGE_LOOP('',(#809,#815,#816,#817));
#809 = ORIENTED_EDGE('',*,*,#810,.F.);
#810 = EDGE_CURVE('',#746,#710,#811,.T.);
#811 = LINE('',#812,#813);
#812 = CARTESIAN_POINT('',(12.45,3.5,7.494005416217E-16));
#813 = VECTOR('',#814,1.);
#814 = DIRECTION('',(0.707106781187,-0.707106781187,8.074761216088E-15)
  );
#815 = ORIENTED_EDGE('',*,*,#755,.T.);
#816 = ORIENTED_EDGE('',*,*,#810,.T.);
#817 = ORIENTED_EDGE('',*,*,#709,.F.);
#818 = CONICAL_SURFACE('',#819,3.5,0.785398163397);
#819 = AXIS2_PLACEMENT_3D('',#820,#821,#822);
#820 = CARTESIAN_POINT('',(12.45,1.415534356397E-14,3.488875854885E-14)
  );
#821 = DIRECTION('',(-1.,-1.54074395551E-30,-1.665334536938E-15));
#822 = DIRECTION('',(1.470309946115E-29,1.,-9.754102287778E-15));
#823 = ADVANCED_FACE('',(#824),#843,.F.);
#824 = FACE_BOUND('',#825,.T.);
#825 = EDGE_LOOP('',(#826,#834,#841,#842));
#826 = ORIENTED_EDGE('',*,*,#827,.T.);
#827 = EDGE_CURVE('',#774,#828,#830,.T.);
#828 = VERTEX_POINT('',#829);
#829 = CARTESIAN_POINT('',(9.5,4.,-27.25));
#830 = LINE('',#831,#832);
#831 = CARTESIAN_POINT('',(9.5,4.,-31.5));
#832 = VECTOR('',#833,1.);
#833 = DIRECTION('',(-1.443289932013E-15,-1.110223024625E-16,1.));
#834 = ORIENTED_EDGE('',*,*,#835,.T.);
#835 = EDGE_CURVE('',#828,#828,#836,.T.);
#836 = CIRCLE('',#837,1.25);
#837 = AXIS2_PLACEMENT_3D('',#838,#839,#840);
#838 = CARTESIAN_POINT('',(8.25,4.,-27.25));
#839 = DIRECTION('',(3.330669073875E-16,1.665334536938E-15,1.));
#840 = DIRECTION('',(1.,-1.33226762955E-15,-3.330669073875E-16));
#841 = ORIENTED_EDGE('',*,*,#827,.F.);
#842 = ORIENTED_EDGE('',*,*,#773,.F.);
#843 = CYLINDRICAL_SURFACE('',#844,1.25);
#844 = AXIS2_PLACEMENT_3D('',#845,#846,#847);
#845 = CARTESIAN_POINT('',(8.25,4.,-31.5));
#846 = DIRECTION('',(1.221245327088E-15,-1.110223024625E-16,-1.));
#847 = DIRECTION('',(1.,-1.110223024625E-15,-1.110223024625E-16));
#848 = ADVANCED_FACE('',(#849),#868,.F.);
#849 = FACE_BOUND('',#850,.T.);
#850 = EDGE_LOOP('',(#851,#859,#866,#867));
#851 = ORIENTED_EDGE('',*,*,#852,.T.);
#852 = EDGE_CURVE('',#794,#853,#855,.T.);
#853 = VERTEX_POINT('',#854);
#854 = CARTESIAN_POINT('',(-7.,4.,-27.25));
#855 = LINE('',#856,#857);
#856 = CARTESIAN_POINT('',(-7.,4.,-31.5));
#857 = VECTOR('',#858,1.);
#858 = DIRECTION('',(-1.443289932013E-15,-1.110223024625E-16,1.));
#859 = ORIENTED_EDGE('',*,*,#860,.T.);
#860 = EDGE_CURVE('',#853,#853,#861,.T.);
#861 = CIRCLE('',#862,1.25);
#862 = AXIS2_PLACEMENT_3D('',#863,#864,#865);
#863 = CARTESIAN_POINT('',(-8.25,4.,-27.25));
#864 = DIRECTION('',(3.330669073875E-16,1.665334536938E-15,1.));
#865 = DIRECTION('',(1.,-1.33226762955E-15,-3.330669073875E-16));
#866 = ORIENTED_EDGE('',*,*,#852,.F.);
#867 = ORIENTED_EDGE('',*,*,#793,.F.);
#868 = CYLINDRICAL_SURFACE('',#869,1.25);
#869 = AXIS2_PLACEMENT_3D('',#870,#871,#872);
#870 = CARTESIAN_POINT('',(-8.25,4.,-31.5));
#871 = DIRECTION('',(1.221245327088E-15,-1.110223024625E-16,-1.));
#872 = DIRECTION('',(1.,-1.110223024625E-15,-1.110223024625E-16));
#873 = ADVANCED_FACE('',(#874),#877,.F.);
#874 = FACE_BOUND('',#875,.F.);
#875 = EDGE_LOOP('',(#876));
#876 = ORIENTED_EDGE('',*,*,#835,.T.);
#877 = PLANE('',#878);
#878 = AXIS2_PLACEMENT_3D('',#879,#880,#881);
#879 = CARTESIAN_POINT('',(4.513666754549E-14,4.,-27.25));
#880 = DIRECTION('',(-1.665334536938E-15,-3.330669073875E-16,1.));
#881 = DIRECTION('',(1.,-1.33226762955E-15,-3.330669073875E-16));
#882 = ADVANCED_FACE('',(#883),#886,.F.);
#883 = FACE_BOUND('',#884,.F.);
#884 = EDGE_LOOP('',(#885));
#885 = ORIENTED_EDGE('',*,*,#860,.T.);
#886 = PLANE('',#887);
#887 = AXIS2_PLACEMENT_3D('',#888,#889,#890);
#888 = CARTESIAN_POINT('',(4.513666754549E-14,4.,-27.25));
#889 = DIRECTION('',(-1.665334536938E-15,-3.330669073875E-16,1.));
#890 = DIRECTION('',(1.,-1.33226762955E-15,-3.330669073875E-16));
#891 = ( GEOMETRIC_REPRESENTATION_CONTEXT(3) 
GLOBAL_UNCERTAINTY_ASSIGNED_CONTEXT((#895)) GLOBAL_UNIT_ASSIGNED_CONTEXT
((#892,#893,#894)) REPRESENTATION_CONTEXT('Context #1',
  '3D Context with UNIT and UNCERTAINTY') );
#892 = ( LENGTH_UNIT() NAMED_UNIT(*) SI_UNIT(.MILLI.,.METRE.) );
#893 = ( NAMED_UNIT(*) PLANE_ANGLE_UNIT() SI_UNIT($,.RADIAN.) );
#894 = ( NAMED_UNIT(*) SI_UNIT($,.STERADIAN.) SOLID_ANGLE_UNIT() );
#895 = UNCERTAINTY_MEASURE_WITH_UNIT(LENGTH_MEASURE(1.E-05),#892,
  'distance_accuracy_value','confusion accuracy');
#896 = PRODUCT_RELATED_PRODUCT_CATEGORY('part',$,(#7));
ENDSEC;
END-ISO-10303-21;
